<svg xmlns="http://www.w3.org/2000/svg" viewBox="0 0 80.3 11.48" fill="#fff" xmlns:v="https://vecta.io/nano"><path d="M1.46 1.82v3.6h4.25V6.6H1.46v4.71H0V.62h6.11v1.2H1.46zm12.81 5.93H8.92c.11 1.7.95 2.61 2.32 2.61.8 0 1.49-.34 2.05-.99l.75.82c-.75.86-1.71 1.3-2.9 1.3-2.16 0-3.67-1.52-3.67-4.1s1.47-4.13 3.51-4.13 3.3 1.5 3.3 3.86l-.02.64zM8.94 6.71h3.95c-.1-1.54-.77-2.34-1.9-2.34s-1.89.79-2.05 2.34zM22.9.19v11.13h-1.36v-1.26h-.06c-.48.96-1.26 1.42-2.3 1.42-1.73 0-3.23-1.41-3.23-4.1s1.5-4.13 3.23-4.13c1.01 0 1.78.42 2.24 1.31h.06V.19h1.42zm-1.39 7.17c0-1.91-.83-2.98-2.07-2.98s-2.05 1.06-2.05 2.99.82 2.96 2.05 2.96 2.07-1.07 2.07-2.98zm10.32.39h-5.35c.11 1.7.95 2.61 2.32 2.61.8 0 1.49-.34 2.05-.99l.75.82c-.75.86-1.71 1.3-2.9 1.3-2.16 0-3.67-1.52-3.67-4.1s1.47-4.13 3.51-4.13 3.3 1.5 3.3 3.86l-.02.64zM26.5 6.71h3.95c-.1-1.54-.77-2.34-1.9-2.34s-1.89.79-2.05 2.34zm12.56 3.55v1.06h-5.73v-1.1l4.18-5.75h-4V3.41h5.54v1.1l-4.18 5.75h4.19zm7.15 0v1.06h-5.73v-1.1l4.18-5.75h-4V3.41h5.54v1.1l-4.18 5.75h4.19zm8.24-2.51H49.1c.11 1.7.95 2.61 2.32 2.61.8 0 1.49-.34 2.05-.99l.75.82c-.75.86-1.71 1.3-2.9 1.3-2.16 0-3.67-1.52-3.67-4.1s1.47-4.13 3.51-4.13 3.3 1.5 3.3 3.86l-.02.64zm-5.33-1.04h3.95c-.1-1.54-.77-2.34-1.9-2.34s-1.89.79-2.05 2.34zm13.2-4.28v.98h1.83V4.5h-1.83v6.82H60.9V4.5h-1.49V3.41h1.49V2.23c0-1.5.91-2.22 2.21-2.22.4 0 .83.03 1.17.13v1.09c-.32-.06-.61-.11-.93-.11-.72 0-1.02.4-1.02 1.31zm9.65 5.32h-5.35c.11 1.7.95 2.61 2.32 2.61.8 0 1.49-.34 2.05-.99l.75.82c-.75.86-1.71 1.3-2.9 1.3-2.16 0-3.67-1.52-3.67-4.1s1.47-4.13 3.51-4.13 3.3 1.5 3.3 3.86l-.02.64zm-5.33-1.04h3.95c-.1-1.54-.77-2.34-1.9-2.34s-1.89.79-2.05 2.34zm9.98 4.64c-.26.08-.59.13-1.04.13-.86 0-1.52-.43-1.52-1.55V.19h1.42v9.4c0 .59.26.77.54.77a1.7 1.7 0 0 0 .59-.1v1.09zm1.6-.91c0-.61.43-1.02 1.04-1.02s1.04.42 1.04 1.02a1 1 0 0 1-1.04 1.04c-.61 0-1.04-.43-1.04-1.04zM80.03.63v2.33l-.3 5.15h-.93l-.29-5.15V.62h1.52z"/></svg>