<svg xmlns="http://www.w3.org/2000/svg" xmlns:xlink="http://www.w3.org/1999/xlink" viewBox="0 0 25 25" xmlns:v="https://vecta.io/nano"><defs><linearGradient id="A" x1=".117" y1=".179" x2=".883" y2=".821"><stop offset="0" stop-color="#fff"/><stop offset=".1" stop-color="#cdd0d0"/><stop offset=".1" stop-color="#e7e8e6"/><stop offset=".2" stop-color="#b5bbbd"/><stop offset=".2" stop-color="#a5acaf"/><stop offset=".3" stop-color="#9ba3a7"/><stop offset=".3" stop-color="#98a0a4"/><stop offset=".4" stop-color="#828a8f"/><stop offset=".5" stop-color="#667075"/><stop offset=".6" stop-color="#535c63"/><stop offset=".7" stop-color="#475158"/><stop offset=".8" stop-color="#434d54"/><stop offset="1" stop-color="#475157"/></linearGradient><linearGradient id="B" x1=".117" y1=".179" x2=".883" y2=".821"><stop offset="0" stop-color="#0b1f2a"/><stop offset=".2" stop-color="#333f47"/><stop offset=".5" stop-color="#777f84"/><stop offset=".5" stop-color="#81898d"/><stop offset=".7" stop-color="#b3b8b8"/><stop offset=".8" stop-color="#d2d5d3"/><stop offset=".8" stop-color="#dee0dd"/><stop offset="1" stop-color="#fbfbfb"/></linearGradient><linearGradient id="C" x1=".671" y1=".97" x2=".329" y2=".03"><stop offset="0" stop-color="#e1e3e1"/><stop offset=".1" stop-color="#c1c5c4"/><stop offset=".3" stop-color="#9ba1a2"/><stop offset=".5" stop-color="#7d8487"/><stop offset=".7" stop-color="#687074" stop-opacity="0"/><stop offset=".8" stop-color="#5b6469" stop-opacity="0"/><stop offset="1" stop-color="#576065" stop-opacity="0"/></linearGradient><linearGradient id="D" x1=".25" y1=".067" x2=".75" y2=".933" xlink:href="#C"/><linearGradient id="E" x1=".504" y1=".479" x2=".434" y2=".679"><stop offset="0" stop-color="#27343c"/><stop offset="1" stop-color="#00111e" stop-opacity="0"/></linearGradient><linearGradient id="F" x1="1.714" y1=".911" x2="1.048" y2=".745"><stop offset=".1" stop-color="#02131f"/><stop offset=".9" stop-color="#02131f" stop-opacity="0"/></linearGradient><linearGradient id="G" x1="1.004" y1=".265" x2=".833" y2=".35"><stop offset=".2" stop-color="#02131f" stop-opacity=".8"/><stop offset=".9" stop-color="#02131f" stop-opacity="0"/></linearGradient><linearGradient id="H" x1=".532" y1=".649" x2=".506" y2=".54"><stop offset="0" stop-color="#02131f"/><stop offset=".1" stop-color="#02131f"/><stop offset="1" stop-color="#02131f" stop-opacity="0"/></linearGradient><linearGradient id="I" x1=".787" y1=".485" x2=".064" y2=".499"><stop offset=".3" stop-color="#02131f"/><stop offset=".8" stop-color="#02131f" stop-opacity="0"/></linearGradient><linearGradient id="J" x1=".809" y1=".482" x2=".319" y2=".492"><stop offset=".4" stop-color="#27343c"/><stop offset="1" stop-color="#3b474e" stop-opacity="0"/></linearGradient><linearGradient id="K" x1="-.049" y1=".32" x2="1.202" y2=".72"><stop offset="0" stop-color="#24303a" stop-opacity="0"/><stop offset="0" stop-color="#25323b" stop-opacity="0"/><stop offset=".1" stop-color="#27343c"/></linearGradient><linearGradient id="L" x1=".556" y1="1.021" x2=".556" y2=".009"><stop offset=".3" stop-color="#a5abaf"/><stop offset="1" stop-color="#a5abaf" stop-opacity="0"/></linearGradient><linearGradient id="M" x1=".502" x2=".502" y2="1"><stop offset="0" stop-color="#dee0dd"/><stop offset="0" stop-color="#c5c9c7"/><stop offset="0" stop-color="#9ea4a5"/><stop offset="0" stop-color="#82898c"/><stop offset="0" stop-color="#71797d"/><stop offset="0" stop-color="#6b7378"/><stop offset=".2" stop-color="#333f47"/><stop offset=".5" stop-color="#27343c"/><stop offset=".8" stop-color="#333f47"/><stop offset="1" stop-color="#434d54"/></linearGradient><linearGradient id="N" x1=".333" y1="-Infinity" x2=".333" y2="-Infinity" xlink:href="#M"/><linearGradient id="O" x1=".845" y1=".122" x2=".333" y2=".606"><stop offset=".7" stop-color="#27343c"/><stop offset=".7" stop-color="#2b373f"/><stop offset=".7" stop-color="#36424a"/><stop offset=".7" stop-color="#49545b"/><stop offset=".8" stop-color="#646d73" stop-opacity="0"/><stop offset=".8" stop-color="#868d92" stop-opacity="0"/><stop offset=".8" stop-color="#b0b5b8" stop-opacity="0"/><stop offset=".8" stop-color="#e1e3e4" stop-opacity="0"/><stop offset=".8" stop-color="#fff" stop-opacity="0"/></linearGradient><path id="P" d="M12.499 24.14C6.112 24.081.966 18.887.966 12.499S6.112.918 12.499.859c3.093.004 6.057 1.237 8.241 3.428s3.407 5.159 3.4 8.252a11.61 11.61 0 0 1-11.641 11.6zm0-23.008c-3.012-.001-5.898 1.21-8.007 3.36C3.448 5.533 2.614 6.764 2.036 8.12a11.32 11.32 0 0 0 2.417 12.427 11.63 11.63 0 0 0 3.628 2.422 11.39 11.39 0 0 0 8.833.015c1.348-.565 2.57-1.393 3.594-2.437 1.043-1.024 1.872-2.246 2.436-3.594a11.39 11.39 0 0 0-.015-8.833 11.63 11.63 0 0 0-2.422-3.628c-2.11-2.15-4.996-3.361-8.008-3.36z"/><path id="Q" d="M12.695 12.226l-.034.039s0 .078.078.039c.039-.039 1.172-.625 1.563-.859L12.93 2.07a.68.68 0 0 0-.469-.625l.156 10.859z"/><path id="R" d="M12.383 12.812c0-.039-.039-.078-.078-.039l-9.453 5.352c.228.164.525.193.781.078l8.828-3.555z"/></defs><g fill="rgba(0,0,0,0)"><path d="M0 0h25v25H0z"/><path d="M0 0h25v25H0z"/></g><path d="M12.499 24.726A12.23 12.23 0 0 1 7.738 1.233c6.222-2.63 13.398.283 16.028 6.505s-.283 13.398-6.505 16.028c-1.507.637-3.126.963-4.762.96zm0-23.711a11.49 11.49 0 0 0-11.256 9.21 11.49 11.49 0 0 0 6.792 12.86A11.5 11.5 0 0 0 20.63 4.373c-2.153-2.161-5.081-3.37-8.131-3.358z" fill="url(#A)"/><path d="M12.501 23.985A11.5 11.5 0 0 1 4.37 4.37C8.856-.12 16.133-.123 20.623 4.363s4.493 11.763.007 16.253c-2.15 2.165-5.078 3.379-8.129 3.369zm0-22.227c-4.345 0-8.262 2.617-9.926 6.632s-.746 8.635 2.326 11.708a10.75 10.75 0 0 0 15.2-15.2c-2.012-2.02-4.749-3.15-7.6-3.14z" fill="url(#B)"/><path d="M12.5,25a12.345,12.345,0,0,1-4.853-.986,12.622,12.622,0,0,1-6.66-6.66,12.434,12.434,0,0,1,0-9.707A12.622,12.622,0,0,1,7.646.986a12.434,12.434,0,0,1,9.707,0,12.622,12.622,0,0,1,6.66,6.66,12.434,12.434,0,0,1,0,9.707,12.622,12.622,0,0,1-6.66,6.66A12.345,12.345,0,0,1,12.5,25ZM12.5.273a12.188,12.188,0,1,0,4.761.96A12.165,12.165,0,0,0,12.5.273Z" opacity=".4" fill="url(#C)"/><use xlink:href="#P" fill="#fff"/><path d="M12.5 23.281a10.77 10.77 0 0 1-7.617-18.4C9.091.674 15.913.674 20.12 4.882s4.207 11.03-.001 15.237c-2.015 2.029-4.759 3.168-7.619 3.162zm0-21.172c-2.767-.003-5.422 1.093-7.381 3.047a9.92 9.92 0 0 0-2.29 3.35 10.3 10.3 0 0 0-.8 3.994 10.45 10.45 0 0 0 17.823 7.423A10.45 10.45 0 0 0 22.139 8.54 10.39 10.39 0 0 0 12.5 2.109z" opacity=".4" fill="url(#D)"/><path d="M21.993 17.578l-7.734-6.133L12.5 1.406c-.15.059-.274.17-.348.313l-1.25 9.766-7.777 5.976-.234.313a.76.76 0 0 0-.039.312h0l9.609-3.945 9.609 3.945h0c.059-.172.03-.361-.077-.508z" fill="#fff"/><path d="M12.578 12.812l-.078 1.797 8.828 3.555a.7.7 0 0 0 .781-.078L12.7 12.773c-.02-.017-.047-.023-.072-.015s-.044.028-.05.054z" fill="#565f64"/><path d="M12.578 12.812a9.33 9.33 0 0 0 1.094 1.524 9.02 9.02 0 0 0 1.914 1.521l5.742 2.3a.7.7 0 0 0 .781-.078l-9.414-5.306c-.02-.015-.045-.019-.069-.011s-.041.027-.048.05z" fill="url(#E)"/><path d="M22.071 17.735c0-.039-.039-.078-.078-.156l-8.047-5.899-1.094.7s.078.042.117 0a.98.98 0 0 1 .583 0c.2.081 8.519 5.394 8.519 5.394z" fill="rgba(164,170,174,0.6)"/><path d="M21.797 17.383l-7.5-5.938h0l-.352.234 8.047 5.938c-.053-.087-.119-.166-.195-.234z" fill="#333e46"/><use xlink:href="#Q" fill="#565f64"/><g fill="rgba(164,170,174,0.6)"><path d="M12.031 2.071v.508l-.859 8.632c-.007.124.053.243.156.313l.508.391.352-9.532.039-.742c-.118.113-.188.267-.196.43z"/><path d="M11.563 12.071l-.472-.391-7.927 5.742s-.234.158-.273.313h0l.273-.155h0l8.321-5.236c.156-.078.195-.156.078-.273z"/></g><use xlink:href="#R" fill="#565f64"/><path d="M12.656 12.266l.039-.039-.039.039h0c0 .01.004.021.011.028s.017.011.028.011h.039c.039-.039 1.172-.625 1.563-.859l-.157-1.133h0l-1.211-8.242c.01-.128-.032-.255-.117-.352 0 0 .586 7.891.586 8.75a2.55 2.55 0 0 1-.742 1.797z" fill="url(#F)"/><use xlink:href="#R" fill="url(#G)"/><path d="M3.633 18.164l8.828-3.554-.078-1.719c-.182.6-.607 1.096-1.172 1.367h0c-.547.313-5.781 2.891-7.656 3.789-.113.061-.231.114-.352.157a.43.43 0 0 0 .43-.04z" opacity=".8" fill="url(#H)"/><use xlink:href="#Q" fill="url(#I)"/><use xlink:href="#Q" fill="url(#J)"/><path d="M1.992 17.344c-.274-.625-1.836-3.672-.119-9.531h-.662a19.33 19.33 0 0 0-.782 2.93c0 0-.078.391-.117.82-.03.312-.043.625-.039.938-.036 1.263.163 2.521.586 3.712a11.4 11.4 0 0 0 3.2 5.039 11.2 11.2 0 0 0 4.922 2.3 13.96 13.96 0 0 1-6.989-6.208z" fill="url(#K)"/><path d="M12.656 12.734h-.352c.039 0 .078 0 .078.039l.078 1.8h.04l.073-1.8c0-.039.044-.078.083-.039z" fill="url(#L)"/><path d="M16.406.898c4.695 1.804 7.841 6.26 7.969 11.289.015 3.157-1.23 6.191-3.459 8.427s-5.259 3.49-8.416 3.484v.625c6.735-.04 12.186-5.49 12.227-12.225a12.23 12.23 0 0 0-8.321-11.6z" fill="url(#M)"/><path d="M12.617.274h0z" fill="url(#N)"/><path d="M22.972 7.891c-1.62-3.763-5.179-6.33-9.261-6.68h-.039a11.02 11.02 0 0 1 8.789 7.188v.039c.471 1.29.722 2.65.742 4.023a10.68 10.68 0 0 1-.859 4.3c-.039.2-.078.43-.117.43h.625c1.452-2.92 1.496-6.343.12-9.3z" fill="url(#O)"/><use xlink:href="#P" fill="#fbfbfb"/><path d="M3.086 17.5h0l7.969-5.742a8.08 8.08 0 0 0 1.211.547c.078.039.078-.039.078-.039l-.977-.82c-.103-.07-.162-.188-.156-.312l.938-9.415c-.039.039-.039.117-.078.156-.032.061-.046.131-.039.2l-1.368 9.41-7.5 5.9c-.039.034-.078.076-.078.115z" fill="#333f47"/></svg>