<svg xmlns="http://www.w3.org/2000/svg" viewBox="0 0 147.13 64"><defs><style>.cls-1{fill:#0078d6;}.cls-2{fill:#fff;}</style></defs><g id="Layer_2" data-name="Layer 2"><g id="Layer_1-2" data-name="Layer 1"><polygon class="cls-1" points="79.11 15.09 77.05 17.14 82.29 22.28 96.19 8.12 94.13 6.08 82.29 18.18 79.11 15.09"/><path class="cls-1" d="M95.63,11.08l-1.79,1.8a10,10,0,0,1,.45,2.92,9.74,9.74,0,1,1-4.1-7.91l1.65-1.65a11.93,11.93,0,1,0,3.79,4.84"/><path class="cls-1" d="M59,15a21.41,21.41,0,0,1-4.64-.2,2,2,0,0,1-1.71-1.67,8,8,0,0,1,0-2.31A1.28,1.28,0,0,1,54,9.65c1,0,1.32,1.45,2,1.74s1.58.56,2.2.86S60,14.84,59,15m12.07.64h-.69A39.1,39.1,0,0,1,62.72,15c-.77-.28-2.07-4.15-1.7-4.49s2.33-.86,9.35-.85h2.16a13.56,13.56,0,0,1,10-7.22c-.79-1.11-1.62-2-2.28-2.07A92.81,92.81,0,0,0,70.37,0a92.81,92.81,0,0,0-9.88.37c-1.16.12-2.85,2.8-3.9,4.67a1.46,1.46,0,0,0-1-.4H53.34A1.37,1.37,0,0,0,51.92,6a1.38,1.38,0,0,0,1.42,1.32h1.35A7.84,7.84,0,0,0,51,12.33a15.47,15.47,0,0,0-.13,6.61v5.13a1.86,1.86,0,0,0,1.86,1.86h4.42A1.87,1.87,0,0,0,59,24.07V22.51h0A19.17,19.17,0,0,1,61,22c.69,0,7.43.41,9.35.41.51,0,1.37,0,2.36-.07a13.45,13.45,0,0,1-1.68-6.52,1,1,0,0,1,0-.17"/><rect class="cls-2" x="87.46" y="43.18" width="3.73" height="0.86"/><path class="cls-2" d="M25.5,38l-.33,8.65v.15c0,.73.22.88,1.39,1v.4c-.86-.07-1.19-.09-1.66-.09s-.8,0-1.66.09v-.4c1.16-.09,1.33-.22,1.36-1.12L25,38.41v-.1c0-.76-.24-.93-1.39-1V36.9c.65.05.9.06,1.37.06a12.12,12.12,0,0,0,1.58-.08l3.1,8.44,3.15-8.44a14.7,14.7,0,0,0,1.6.08c.42,0,.69,0,1.32-.06v.41c-1.13.07-1.38.24-1.38,1v.11l.18,8.19c0,.9.17,1,1.37,1.12v.4A19.77,19.77,0,0,0,33.77,48a19.78,19.78,0,0,0-2.08.14v-.4c1.13-.07,1.38-.25,1.38-1V46.6L32.92,38,30.17,45.4,30,46l-.23.62-.22.63-.18.55h-.25l-.18-.53-.24-.65-.23-.65-.2-.59Z"/><path class="cls-2" d="M38,43.33c.16-1.92.8-2.9,1.86-2.9s1.64.93,1.74,2.9Zm2.16,4.37c-1.51,0-2.18-1.17-2.2-3.77h5c0-2.57-1.08-3.93-3.05-3.93s-3.25,1.61-3.25,4.18,1.25,4.07,3.4,4.07A2.82,2.82,0,0,0,43,45.52h-.67c-.2,1.41-.93,2.18-2.12,2.18"/><path class="cls-2" d="M44,40.61v-.3a10.29,10.29,0,0,0,2.21-.38c.08.62.11.88.14,1.38v.19a2.11,2.11,0,0,1,2-1.5,1.35,1.35,0,0,1,1.45,1.35.72.72,0,0,1-.7.8.62.62,0,0,1-.69-.57,1,1,0,0,1,0-.17l0-.16V41.1c0-.24-.2-.4-.5-.4-.87,0-1.42,1-1.42,2.7v3.48c0,.72.17.85,1.19.9v.34A15.75,15.75,0,0,0,45.8,48a15.55,15.55,0,0,0-1.86.1v-.34c1-.05,1.2-.18,1.2-.9V41.43c0-.72-.1-.8-1-.82Z"/><path class="cls-2" d="M56.08,39.85V42.6h-.36c-.3-1.45-.92-2.15-1.94-2.15-1.25,0-2,1.35-2,3.73s.65,3.52,1.93,3.52c1,0,1.65-.73,1.85-2.2h.69c-.22,1.78-1.17,2.75-2.67,2.75-1.93,0-3.25-1.63-3.25-4.07S51.68,40,53.65,40a2.14,2.14,0,0,1,1.7.7l.45-.85Z"/><path class="cls-2" d="M58.82,43.33c.17-1.92.8-2.9,1.87-2.9s1.63.93,1.73,2.9ZM61,47.7c-1.52,0-2.18-1.17-2.2-3.77h5c0-2.57-1.09-3.93-3-3.93s-3.26,1.61-3.26,4.18,1.26,4.07,3.41,4.07a2.82,2.82,0,0,0,2.92-2.73h-.67c-.2,1.41-.94,2.18-2.12,2.18"/><path class="cls-2" d="M68.38,47.8c-1.2,0-1.84-1.25-1.84-3.63s.59-3.61,1.79-3.61,1.86,1.27,1.86,3.72-.61,3.52-1.81,3.52m3.13-1.42V36.76a15.9,15.9,0,0,1-2.52.45v.29c1.05,0,1.19.11,1.19,1V41.4c-.62-1-1.1-1.3-2-1.3-1.79,0-3,1.68-3,4.08s1.27,4.09,3.09,4.09a2.15,2.15,0,0,0,2.06-1.37,6.2,6.2,0,0,0,.24,1.33,8.71,8.71,0,0,1,2-.4l.25,0v-.28c-1.12,0-1.22-.12-1.22-1.14"/><path class="cls-2" d="M74.73,43.33c.16-1.92.8-2.9,1.86-2.9s1.64.93,1.74,2.9Zm2.16,4.37c-1.51,0-2.18-1.17-2.2-3.77h5c0-2.57-1.08-3.93-3-3.93s-3.25,1.61-3.25,4.18,1.25,4.07,3.4,4.07a2.82,2.82,0,0,0,2.92-2.73H79c-.2,1.41-.93,2.18-2.12,2.18"/><path class="cls-2" d="M81.08,48.27V45.48h.36c.3,1.51,1,2.25,2.17,2.25a1.59,1.59,0,0,0,1.72-1.5c0-.57-.32-.95-1.13-1.32l-.64-.28-.77-.35c-1.21-.57-1.6-1-1.6-2a2.27,2.27,0,0,1,2.51-2.21,2.83,2.83,0,0,1,1.7.53l.28-.68H86v2.58H85.6c-.15-1.33-.7-2-1.76-2a1.46,1.46,0,0,0-1.56,1.39c0,.67.25.88,1.77,1.55l.69.3c1.27.55,1.72,1.08,1.72,2.07a2.45,2.45,0,0,1-2.68,2.4,3,3,0,0,1-2-.7l-.4.75Z"/><path class="cls-2" d="M95.73,42.51a2.24,2.24,0,0,1,1.77.54,2.72,2.72,0,0,1,.6,1.9c0,1.67-.83,2.6-2.32,2.6h-.6c-.88,0-1-.13-1-.87V42.51Zm-1.58-5h1.42c1.4,0,2,.69,2,2.24A2.57,2.57,0,0,1,97,41.45c-.36.41-.81.55-1.75.55H94.15Zm4.92,2.2a2.62,2.62,0,0,0-1-2.11,3.57,3.57,0,0,0-2.3-.6H91.38v.41c1.2.07,1.37.2,1.37,1.1v8.09c0,.9-.13,1-1.37,1.12v.4H95.6a4.36,4.36,0,0,0,2.6-.59,3.12,3.12,0,0,0,1.39-2.6,2.78,2.78,0,0,0-1-2.22,3,3,0,0,0-1.31-.53,2.52,2.52,0,0,0,1.83-2.47"/><path class="cls-2" d="M102.31,43.33c.16-1.92.8-2.9,1.87-2.9s1.63.93,1.73,2.9Zm2.17,4.37c-1.52,0-2.19-1.17-2.21-3.77h5c0-2.57-1.08-3.93-3-3.93s-3.25,1.61-3.25,4.18,1.25,4.07,3.4,4.07a2.82,2.82,0,0,0,2.92-2.73h-.67c-.2,1.41-.93,2.18-2.11,2.18"/><path class="cls-2" d="M108.13,40.68V40.4a11.1,11.1,0,0,0,2.2-.5,8.93,8.93,0,0,1,.16,1.45,2.52,2.52,0,0,1,2.25-1.3A2.31,2.31,0,0,1,115,41.38a3.94,3.94,0,0,1,.25,1.5v4c0,.72.16.85,1.18.9v.34a14.68,14.68,0,0,0-1.82-.1,14.49,14.49,0,0,0-1.82.1v-.34c.91,0,1.12-.2,1.12-.86V42.83c0-1.45-.43-2-1.5-2s-1.73.71-1.73,2.08v4c0,.66.21.83,1.08.86v.34a14.29,14.29,0,0,0-1.8-.1,14.48,14.48,0,0,0-1.8.1v-.34c1-.05,1.18-.18,1.18-.9v-5.4c0-.68-.11-.78-1-.78l-.21,0"/><path class="cls-2" d="M117,48.07l4.52-7.44h-2c-1.09,0-1.36.23-2,1.73h-.33l.38-2.16h5.74l-4.53,7.43h2c1.13,0,1.6-.45,2.1-2h.35l-.44,2.4Z"/><path class="cls-2" d="M44,60.38c.33,2,1.33,3,3,3a2.15,2.15,0,0,0,2.3-2.2,1.92,1.92,0,0,0-.75-1.57,9.15,9.15,0,0,0-1.6-.9,9.18,9.18,0,0,1-2.33-1.42,2.37,2.37,0,0,1-.77-1.88A2.91,2.91,0,0,1,47,52.47a2.83,2.83,0,0,1,2.16.87l.5-.94H50v3.07h-.4c-.38-1.71-1.15-2.5-2.45-2.5A2,2,0,0,0,45,55a1.7,1.7,0,0,0,1,1.53,15.47,15.47,0,0,0,1.62.87,11.43,11.43,0,0,1,1.9,1.1,2.61,2.61,0,0,1,1,2.2,3.11,3.11,0,0,1-3.34,3.19,3.74,3.74,0,0,1-2.63-1L43.92,64h-.29V60.38Z"/><path class="cls-2" d="M55.8,63.38a2.75,2.75,0,0,1-1.63.52A1.68,1.68,0,0,1,52.52,63a3.72,3.72,0,0,1-.2-1.51v-.3l.07-4.67H51.32V56c1,0,1.7-.81,2-2.48h.43v2.38h1.93v.62H53.74l0,4.86c0,1.45.23,1.9,1,1.9a2.15,2.15,0,0,0,1.08-.35Z"/><path class="cls-2" d="M61,59.28c-2.1.37-3,1.08-3,2.38a1.34,1.34,0,0,0,1.39,1.52c1.15,0,1.63-.73,1.63-2.47Zm2.4,4.47a4.46,4.46,0,0,1-.91.12c-.82,0-1.19-.42-1.29-1.42A2.28,2.28,0,0,1,59,63.9a2.14,2.14,0,0,1-2.32-2.15c0-1,.6-1.75,1.9-2.29A8.85,8.85,0,0,1,61,58.84v-1a1.91,1.91,0,0,0-.25-1.18,1.39,1.39,0,0,0-1.13-.49c-.82,0-1.39.4-1.39,1v.13a1.48,1.48,0,0,1,0,.27.63.63,0,0,1-.69.72.51.51,0,0,1-.55-.57c0-1.07,1.27-2,2.74-2a2.69,2.69,0,0,1,2.18,1,2.88,2.88,0,0,1,.41,1.8v3.4c0,1.14.15,1.49.65,1.49a2.93,2.93,0,0,0,.41,0Z"/><path class="cls-2" d="M64.18,56a12,12,0,0,0,2.2-.4,13.85,13.85,0,0,1,.15,1.58,2.11,2.11,0,0,1,2-1.52A1.37,1.37,0,0,1,69.94,57a.72.72,0,0,1-.7.8.62.62,0,0,1-.69-.55,1,1,0,0,1,.07-.35l0-.15c0-.24-.22-.41-.52-.41-.87,0-1.42,1.06-1.42,2.71v3.48c0,.71.18.86,1.18.91v.33A17.84,17.84,0,0,0,66,63.7a18.18,18.18,0,0,0-1.87.1v-.33c1,0,1.22-.2,1.21-.91V57.38c0-1,0-1.07-1.19-1.09Z"/><path class="cls-2" d="M74.32,58.21a2.48,2.48,0,0,0,1.74-.5,2.62,2.62,0,0,0,.82-2.07,2.88,2.88,0,0,0-.64-1.92,2.26,2.26,0,0,0-1.82-.58H73v5.07ZM73,62.28c0,.87.18,1,1.38,1.12v.4a19.36,19.36,0,0,0-2.08-.13,18.83,18.83,0,0,0-2.09.13v-.4c1.19-.08,1.39-.25,1.37-1.12V54.14c0-.85-.2-1-1.37-1.1v-.42h4.39a4,4,0,0,1,2.49.6,3.09,3.09,0,0,1,1.22,2.49,2.9,2.9,0,0,1-1.24,2.4,3.71,3.71,0,0,1-2.3.62H73Z"/><path class="cls-2" d="M83,59.28c-2.1.37-3,1.08-3,2.38a1.34,1.34,0,0,0,1.39,1.52c1.15,0,1.63-.73,1.63-2.47Zm2.4,4.47a4.46,4.46,0,0,1-.91.12c-.82,0-1.19-.42-1.29-1.42A2.28,2.28,0,0,1,80.9,63.9a2.14,2.14,0,0,1-2.32-2.15c0-1,.6-1.75,1.9-2.29A8.85,8.85,0,0,1,83,58.84v-1a1.91,1.91,0,0,0-.25-1.18,1.39,1.39,0,0,0-1.13-.49c-.82,0-1.39.4-1.39,1v.13a1.48,1.48,0,0,1,0,.27.63.63,0,0,1-.69.72.51.51,0,0,1-.55-.57c0-1.07,1.27-2,2.74-2a2.73,2.73,0,0,1,2.19,1,3,3,0,0,1,.4,1.8v3.4c0,1.14.15,1.49.65,1.49a2.93,2.93,0,0,0,.41,0Z"/><path class="cls-2" d="M86.12,56a11.8,11.8,0,0,0,2.2-.4,13.85,13.85,0,0,1,.15,1.58,2.11,2.11,0,0,1,2-1.52A1.37,1.37,0,0,1,91.88,57a.72.72,0,0,1-.7.8.62.62,0,0,1-.69-.55,1,1,0,0,1,.07-.35l0-.15c0-.24-.22-.41-.52-.41-.87,0-1.42,1.06-1.42,2.71v3.48c0,.71.18.86,1.19.91v.33a17.44,17.44,0,0,0-3.73,0v-.33c1,0,1.22-.2,1.21-.91V57.38c0-1,0-1.07-1.19-1.09Z"/><path class="cls-2" d="M97.12,63.38a2.8,2.8,0,0,1-1.64.52A1.68,1.68,0,0,1,93.83,63a3.72,3.72,0,0,1-.2-1.51l0-.3.06-4.67H92.63V56c1.05,0,1.7-.81,2-2.48h.43v2.38H97v.62H95.05l0,4.86c0,1.45.23,1.9,1,1.9a2.18,2.18,0,0,0,1.09-.35Z"/><path class="cls-2" d="M98,61.16h.37a3.23,3.23,0,0,0,.37,1.15,2,2,0,0,0,1.8,1.09,1.59,1.59,0,0,0,1.72-1.5,1.09,1.09,0,0,0-.54-1,6.51,6.51,0,0,0-1.25-.63c-1.5-.69-1.57-.72-1.83-1a1.75,1.75,0,0,1-.54-1.35,2.28,2.28,0,0,1,2.51-2.22,2.8,2.8,0,0,1,1.71.54l.29-.69h.28v2.59h-.37c-.15-1.33-.71-2-1.75-2a1.47,1.47,0,0,0-1.58,1.39c0,.5.23.81.9,1.15l1.58.7c1.26.55,1.71,1.1,1.71,2.07a2.45,2.45,0,0,1-2.67,2.4,3.07,3.07,0,0,1-2-.7l-.4.75H98Z"/><path class="cls-1" d="M113.2,31.64H27.3c-12.21,0-27.3-.48-27.3-.48s14.91-.48,27.28-.48h85.89c12.43,0,34,.48,34,.48s-21.48.48-33.93.48"/></g></g></svg>