<svg xmlns="http://www.w3.org/2000/svg" xmlns:xlink="http://www.w3.org/1999/xlink" viewBox="0 0 190.6 46.83" xmlns:v="https://vecta.io/nano"><g fill="#fff"><path d="M12.22 16.06v.58H7.56v-.58c1.54-.12 1.51-.26 1.06-1.8l-.72-2.4H3.31l-.67 2.4c-.43 1.54-.46 1.68 1.03 1.8v.58H0v-.58c.91-.12 1.34-.24 1.78-1.8L5.64.34h.43l4.37 13.95c.48 1.54.96 1.66 1.78 1.78zm-4.56-5.04L5.52 3.86l-1.99 7.15h4.13zm9.79.48c.26 2.93 1.25 4.54 3.55 4.54 1.87 0 2.98-1.01 2.98-2.76s-.94-2.76-2.52-3.7l-1.75-1.03c-1.68-.98-2.69-2.16-2.69-4.15 0-2.59 1.99-4.03 3.94-4.03S24.3 1.4 24.8 1.79v3.36h-.53c-.26-2.52-1.46-3.94-3.22-3.94-1.66 0-2.62 1.01-2.62 2.66 0 1.46.86 2.28 2.28 3.12l2.09 1.22c1.7 1.01 2.69 2.42 2.69 4.27 0 2.35-1.87 4.39-4.42 4.39-1.94 0-3.5-.79-4.2-1.39V11.5h.58z"/><use xlink:href="#B"/><use xlink:href="#C"/><use xlink:href="#D"/><path d="M53.86 9.38v4.78c0 1.58.22 1.78 1.94 1.9v.58h-5.18v-.58c1.3-.12 1.51-.31 1.51-1.9V3.07c0-1.58-.22-1.78-1.51-1.9V.6h4.97c3.05 0 4.8 1.73 4.8 4.39s-1.75 4.39-4.8 4.39h-1.73zm0-7.94v7.1h1.37c2.3 0 3.34-1.37 3.34-3.55s-1.03-3.55-3.34-3.55h-1.37z"/><use xlink:href="#C" x="27.64"/><use xlink:href="#D" x="27.64"/><use xlink:href="#B" x="51.46"/><use xlink:href="#E"/><path d="M112.13 16.06v.58h-4.03v-.58c.98-.12 1.15-.34 1.15-1.78V7.73c0-1.42-.5-1.92-1.39-1.92-1.18 0-2.14 1.2-2.14 2.9v5.57c0 1.44.17 1.66 1.15 1.78v.58h-3.94v-.58c.98-.12 1.15-.34 1.15-1.78V7.73c0-1.42-.5-1.92-1.39-1.92-1.13 0-2.14 1.2-2.14 2.9v5.57c0 1.44.17 1.66 1.15 1.78v.58h-4.03v-.58c1.08-.12 1.25-.34 1.25-1.78V7.54c0-1.44-.17-1.7-1.34-1.8v-.58h2.76v1.82c.48-1.25 1.46-2.06 2.66-2.06s2.09.67 2.47 1.82c.53-1.13 1.49-1.82 2.69-1.82 1.75 0 2.71 1.3 2.71 3.43v5.93c0 1.44.17 1.66 1.25 1.78zm1.22-10.32v-.58h2.98v9.12c0 1.44.17 1.66 1.25 1.78v.58h-4.13v-.58c1.08-.12 1.25-.34 1.25-1.78V7.54c0-1.44-.17-1.7-1.34-1.8zm.84-3.67c0-.72.48-1.25 1.22-1.25s1.22.53 1.22 1.25-.5 1.25-1.22 1.25-1.22-.53-1.22-1.25zm14.21 13.99v.58h-4.03v-.58c.98-.12 1.15-.34 1.15-1.78V7.75c0-1.42-.5-1.94-1.44-1.94-1.25 0-2.23 1.32-2.23 2.98v5.5c0 1.44.17 1.66 1.15 1.78v.58h-4.03v-.58c1.08-.12 1.25-.34 1.25-1.78V7.54c0-1.44-.17-1.7-1.34-1.8v-.58h2.76v1.82c.48-1.27 1.49-2.06 2.78-2.06 1.75 0 2.74 1.32 2.74 3.48v5.88c0 1.44.17 1.66 1.25 1.78zm1.46-5.16c0-3.72 1.8-5.98 4.01-5.98s4.01 2.26 4.01 5.98-1.8 5.98-4.01 5.98-4.01-2.26-4.01-5.98zm6.29 0c0-3.34-.67-5.21-2.28-5.21s-2.28 1.87-2.28 5.21.67 5.21 2.28 5.21 2.28-1.87 2.28-5.21zM133.51.7c.22-.48.58-.7.89-.7a.83.83 0 0 1 .82.82c0 .17-.07.36-.22.53l-2.09 2.47h-.77L133.51.7zm3.07-.02c.24-.46.58-.62.91-.62.5 0 .79.41.79.79a.76.76 0 0 1-.24.55l-2.3 2.42h-.77l1.61-3.14z"/><use xlink:href="#E" x="54.43"/><path d="M149.57 10.66v.26c0 3.72.79 5.19 2.54 5.19 1.32 0 2.23-1.13 2.33-2.86h.79c-.14 2.14-1.3 3.62-3.31 3.62-2.71 0-4.08-2.21-4.08-5.95s1.75-6 3.82-6 3.62 2.11 3.62 5.52v.22h-5.71zm.02-.77h4.01c0-2.57-.62-4.2-1.94-4.2s-1.94 1.42-2.06 4.2zm2.21-6.07h-.79L152.52.7c.24-.5.55-.67.86-.67.5 0 .91.41.91.86 0 .19-.1.43-.29.62l-2.21 2.3zm13.08 13.58c0 2.09-2.04 3.58-4.25 3.58s-3.94-.94-3.94-2.71c0-1.08.74-1.97 1.82-2.47-.72-.26-1.25-.77-1.25-1.68 0-1.32 1.27-1.82 2.21-2.06-1.22-.43-2.18-1.61-2.18-3.31 0-2.21 1.54-3.58 3.24-3.58h4.22v.89h-2.14c.72.58 1.2 1.51 1.2 2.69 0 1.7-.94 2.9-2.16 3.36h.02c-1.44.48-3.07.62-3.07 1.39 0 .7.74.7 2.33.77 1.85.07 3.94.74 3.94 3.14zm-1.32.67c0-1.49-1.06-2.06-2.81-2.06s-2.9.67-2.9 2.04c0 1.61 1.42 2.16 2.9 2.16s2.81-.55 2.81-2.14zm-4.68-9.34c0 1.63.48 2.78 1.66 2.78s1.73-1.15 1.73-2.78-.5-2.81-1.73-2.81-1.66 1.15-1.66 2.81zm8.93 1.93v.26c0 3.72.79 5.19 2.54 5.19 1.32 0 2.23-1.13 2.33-2.86h.79c-.14 2.14-1.3 3.62-3.31 3.62-2.71 0-4.08-2.21-4.08-5.95s1.75-6 3.82-6 3.62 2.11 3.62 5.52v.22h-5.71zm.02-.77h4.01c0-2.57-.62-4.2-1.94-4.2s-1.94 1.42-2.06 4.2zm2.21-6.07h-.79L170.76.7c.24-.5.55-.67.86-.67.5 0 .91.41.91.86 0 .19-.1.43-.29.62l-2.21 2.3z"/><use xlink:href="#D" x="132.28"/><path d="M184.89 10.66v.26c0 3.72.79 5.19 2.54 5.19 1.32 0 2.23-1.13 2.33-2.86h.79c-.14 2.14-1.3 3.62-3.31 3.62-2.71 0-4.08-2.21-4.08-5.95s1.75-6 3.82-6 3.62 2.11 3.62 5.52v.22h-5.71zm.02-.77h4.01c0-2.57-.62-4.2-1.94-4.2s-1.94 1.42-2.06 4.2zM9.34 36.9c0 3.67-1.61 5.98-3.65 5.98-1.08 0-1.97-.72-2.52-1.97l-1.01 1.97h-.38v-13.9c0-1.44-.17-1.7-1.34-1.8v-.58h2.97v6.17c.53-1.18 1.32-1.85 2.28-1.85 2.04 0 3.65 2.3 3.65 5.98zm-1.73 0c0-3.19-.6-5.21-1.99-5.21s-2.21 1.75-2.21 5.21.86 5.21 2.21 5.21 1.99-2.02 1.99-5.21zm11.54 5.11v.58c-.34.07-.79.19-1.32.19-.86 0-1.39-.53-1.39-1.7v-.1c-.48 1.27-1.42 1.9-2.54 1.9-1.75 0-2.62-1.32-2.62-3.22 0-2.28 1.27-3.31 3.53-3.91l1.37-.36v-1.75c0-1.44-.55-1.94-1.46-1.94s-1.44.77-1.44 1.7c0 .72-.31.91-.77.91-.43 0-.77-.22-.77-.86 0-1.2 1.39-2.52 2.98-2.52 1.99 0 3.1 1.42 3.1 3.43v6.26c0 1.13.36 1.42 1.34 1.39zm-2.98-2.98v-2.9l-1.18.34c-1.68.53-1.99 1.7-1.99 3.1s.58 2.23 1.56 2.23c.84 0 1.61-.94 1.61-2.76zm-1.2-9.22h-.79l1.51-3.12c.24-.5.55-.67.86-.67.5 0 .91.41.91.86 0 .19-.1.43-.29.62l-2.21 2.3z"/><use xlink:href="#F"/><path d="M33.67 32.72c0 .79-.26 1.27-.86 1.27-.38 0-.77-.26-.77-.77 0-.24.12-.48.12-.7 0-.41-.29-.62-.72-.62-1.06 0-1.8 1.46-1.8 3.53v4.85c0 1.44.17 1.66 1.61 1.78v.58h-4.49v-.58c1.08-.12 1.25-.34 1.25-1.78v-6.74c0-1.44-.17-1.7-1.34-1.8v-.58h2.76v1.94c.46-1.34 1.32-2.18 2.47-2.18s1.78.77 1.78 1.8zm9.03 9.29v.58c-.34.07-.79.19-1.32.19-.86 0-1.39-.53-1.39-1.7v-.1c-.48 1.27-1.42 1.9-2.54 1.9-1.75 0-2.62-1.32-2.62-3.22 0-2.28 1.27-3.31 3.53-3.91l1.37-.36v-1.75c0-1.44-.55-1.94-1.46-1.94s-1.44.77-1.44 1.7c0 .72-.31.91-.77.91-.43 0-.77-.22-.77-.86 0-1.2 1.39-2.52 2.98-2.52 1.99 0 3.1 1.42 3.1 3.43v6.26c0 1.13.36 1.42 1.34 1.39zm-2.98-2.98v-2.9l-1.18.34c-1.68.53-1.99 1.7-1.99 3.1s.58 2.23 1.56 2.23c.84 0 1.61-.94 1.61-2.76zm13.58 3.03v.58h-4.03v-.58c.98-.12 1.15-.34 1.15-1.78v-6.53c0-1.42-.5-1.94-1.44-1.94-1.25 0-2.23 1.32-2.23 2.98v5.5c0 1.44.17 1.66 1.15 1.78v.58h-4.03v-.58c1.08-.12 1.25-.34 1.25-1.78v-6.74c0-1.44-.17-1.7-1.34-1.8v-.58h2.76v1.82c.48-1.27 1.49-2.06 2.78-2.06 1.75 0 2.74 1.32 2.74 3.48v5.88c0 1.44.17 1.66 1.25 1.78zm7.61-5.4v.26c0 3.72.79 5.18 2.54 5.18 1.32 0 2.23-1.13 2.33-2.86h.79c-.14 2.14-1.3 3.62-3.31 3.62-2.71 0-4.08-2.21-4.08-5.95s1.75-6 3.82-6 3.62 2.11 3.62 5.52v.22h-5.71zm.02-.77h4.01c0-2.57-.62-4.2-1.94-4.2s-1.94 1.42-2.06 4.2zm2.21-6.07h-.79l1.51-3.12c.24-.5.55-.67.86-.67.5 0 .91.41.91.86 0 .19-.1.43-.29.62l-2.21 2.3zm13.95 7.08c0 3.67-1.61 5.98-3.65 5.98-.96 0-1.75-.67-2.28-1.85v3.46c0 1.44.17 1.66 1.39 1.78v.58h-4.27v-.58c1.08-.12 1.25-.34 1.25-1.78V33.54c0-1.44-.17-1.7-1.34-1.8v-.58h2.86v1.9c.53-1.37 1.34-2.14 2.4-2.14 2.04 0 3.65 2.3 3.65 5.98zm-1.73 0c0-3.19-.6-5.21-1.99-5.21s-2.21 1.75-2.21 5.21.86 5.21 2.21 5.21 1.99-2.02 1.99-5.21zm3.33-5.16v-.58h2.98v9.12c0 1.44.17 1.66 1.25 1.78v.58h-4.13v-.58c1.08-.12 1.25-.34 1.25-1.78v-6.74c0-1.44-.17-1.7-1.34-1.8zm2.9-5.04c.24-.5.55-.67.86-.67.5 0 .91.41.91.86 0 .19-.1.43-.29.62l-2.21 2.3h-.79l1.51-3.12z"/><use xlink:href="#F" x="64.05"/><path d="M100.2 42.06v.58h-4.03v-.58c.98-.12 1.15-.34 1.15-1.78v-6.53c0-1.42-.5-1.94-1.44-1.94-1.25 0-2.23 1.32-2.23 2.98v5.5c0 1.44.17 1.66 1.15 1.78v.58h-4.03v-.58c1.08-.12 1.25-.34 1.25-1.78v-11.3c0-1.44-.17-1.7-1.34-1.8v-.58h2.98v5.9c.53-.98 1.44-1.58 2.57-1.58 1.75 0 2.74 1.32 2.74 3.48v5.88c0 1.44.17 1.66 1.25 1.78zm3.17-5.4v.26c0 3.72.79 5.18 2.54 5.18 1.32 0 2.23-1.13 2.33-2.86h.79c-.14 2.14-1.3 3.62-3.31 3.62-2.71 0-4.08-2.21-4.08-5.95s1.75-6 3.82-6 3.62 2.11 3.62 5.52v.22h-5.71zm.02-.77h4.01c0-2.57-.62-4.2-1.94-4.2s-1.94 1.42-2.06 4.2z"/><use xlink:href="#F" x="90.41"/><path d="M117.69 41.53c0-.77.53-1.34 1.32-1.34s1.3.58 1.3 1.34-.5 1.34-1.3 1.34-1.32-.58-1.32-1.34zm1.32-15.17c.65 0 1.06.46 1.01 1.2l-.62 10.46h-.77l-.62-10.46c-.05-.74.36-1.2 1.01-1.2z"/></g><defs ><path id="B" d="M32.64 15.51v.79c-.62.38-1.32.58-2.11.58-1.46 0-2.3-.84-2.3-2.66V5.93h-1.68v-.7c1.68-.24 2.52-1.3 2.71-3.34h.65v3.26h2.62v.77h-2.62v7.97c0 1.54.5 1.92 1.39 1.92.5 0 .94-.12 1.34-.31z"/><path id="C" d="M41.74 16.01v.58c-.34.07-.79.19-1.32.19-.86 0-1.39-.53-1.39-1.7v-.1c-.48 1.27-1.42 1.9-2.54 1.9-1.75 0-2.62-1.32-2.62-3.22 0-2.28 1.27-3.31 3.53-3.91l1.37-.36V7.64c0-1.44-.55-1.94-1.46-1.94s-1.44.77-1.44 1.7c0 .72-.31.91-.77.91-.43 0-.77-.22-.77-.86 0-1.2 1.39-2.52 2.98-2.52 1.99 0 3.1 1.42 3.1 3.43v6.27c0 1.13.36 1.42 1.34 1.39zm-2.98-2.98v-2.9l-1.18.34c-1.68.53-1.99 1.7-1.99 3.1s.58 2.23 1.56 2.23c.84 0 1.61-.94 1.61-2.76z"/><path id="D" d="M49.78 6.72c0 .79-.26 1.27-.86 1.27-.38 0-.77-.26-.77-.77 0-.24.12-.48.12-.7 0-.41-.29-.62-.72-.62-1.06 0-1.8 1.46-1.8 3.53v4.85c0 1.44.17 1.66 1.61 1.78v.58h-4.49v-.58c1.08-.12 1.25-.34 1.25-1.78V7.54c0-1.44-.17-1.7-1.34-1.8v-.58h2.76V7.1c.46-1.34 1.32-2.18 2.47-2.18s1.78.77 1.78 1.8z"/><path id="E" d="M85.27 13.27h.58c.07 2.02 1.06 2.83 2.5 2.83 1.25 0 2.04-.79 2.04-1.82 0-1.18-.72-1.85-1.75-2.45l-1.32-.77c-1.2-.7-1.92-1.51-1.92-3.07 0-1.97 1.42-3.07 3.07-3.07 1.08 0 2.18.46 2.81 1.03v2.26h-.58c-.05-1.27-.55-2.52-2.23-2.52-1.1 0-1.8.72-1.8 1.85 0 1.03.58 1.58 1.63 2.18l1.54.86c1.06.6 1.9 1.56 1.9 2.98 0 1.99-1.49 3.31-3.38 3.31-1.44 0-2.21-.46-3.07-1.03v-2.57z"/><path id="F" d="M25.8 41.51v.79c-.62.38-1.32.58-2.11.58-1.46 0-2.3-.84-2.3-2.66v-8.28h-1.68v-.7c1.68-.24 2.52-1.3 2.71-3.34h.65v3.26h2.62v.77h-2.62v7.97c0 1.54.5 1.92 1.39 1.92.5 0 .94-.12 1.34-.31z"/></defs></svg>