<svg xmlns="http://www.w3.org/2000/svg" xmlns:xlink="http://www.w3.org/1999/xlink" viewBox="0 0 242.66 103.18" xmlns:v="https://vecta.io/nano"><g fill="#fff"><path d="M9.29 5.38V4.8h3.86v.58c-1.3.12-1.51.31-1.51 1.9v9.19c0 3.05-1.68 4.61-4.51 4.61s-4.61-1.7-4.61-4.51v-9.3c0-1.58-.22-1.78-1.51-1.9v-.58h4.75v.58c-1.3.12-1.51.31-1.51 1.9v9.05c0 2.74 1.22 3.91 3.14 3.91 2.21 0 3.41-1.18 3.41-3.91V7.27c0-1.58-.22-1.78-1.51-1.9zM8.31.6c.36-.43.6-.6 1.03-.6.38 0 .79.34.79.84 0 .24-.02.55-.72.98L7.08 3.21h-.91L8.3.6zm5.03 23.93c1.34 0 2.38-1.01 2.38-3.05v-9.74c0-1.44-.17-1.7-1.34-1.8v-.58h2.98v11.4c0 3.55-2.33 4.42-4.01 4.42v-.65zm1.87-18.27c0-.72.48-1.25 1.22-1.25s1.22.53 1.22 1.25-.5 1.25-1.22 1.25-1.22-.53-1.22-1.25zm7.49 14.6c0 1.99-1.61 3.43-2.47 3.79l-.31-.6c1.1-.5 2.11-1.92 1.92-3.31-.22.22-.53.34-.89.34-.79 0-1.32-.55-1.32-1.32s.53-1.34 1.32-1.34 1.75.58 1.75 2.45zm15.39-.6v.58h-2.74l-3.19-5.95h-.86v3.6c0 1.44.17 1.66 1.25 1.78v.58h-4.13v-.58c1.08-.12 1.25-.34 1.25-1.78V7.18c0-1.44-.17-1.7-1.34-1.8V4.8h2.98v9.31h.94l2.4-3.12c.62-.82.14-.96-.86-1.06v-.58h3.67v.58c-.91.1-1.27.24-1.9 1.06l-2.26 2.93 3.07 5.3c.53.89.84.94 1.73 1.03z"/><use xlink:href="#B"/><path d="M56.59 20.26v.58h-2.66v-1.97c-.53 1.42-1.42 2.21-2.5 2.21-2.09 0-3.74-2.3-3.74-5.98s1.66-5.98 3.74-5.98c.96 0 1.75.6 2.28 1.7V7.17c0-1.44-.17-1.7-1.34-1.8v-.58h2.98v13.68c0 1.44.17 1.66 1.25 1.78zm-2.81-5.16c0-3.46-.89-5.21-2.28-5.21s-2.04 2.02-2.04 5.21.62 5.21 2.04 5.21 2.28-1.75 2.28-5.21z"/><use xlink:href="#C"/><path d="M69 14.86v.26c0 3.72.79 5.18 2.54 5.18 1.32 0 2.23-1.13 2.33-2.86h.79c-.14 2.14-1.3 3.62-3.31 3.62-2.71 0-4.08-2.21-4.08-5.95s1.75-6 3.82-6 3.62 2.11 3.62 5.52v.22H69zm.02-.77h4.01c0-2.57-.62-4.2-1.94-4.2s-1.94 1.42-2.06 4.2zm14.52-4.54l-5.35 10.51h2.54c1.56 0 1.9-.55 2.11-2.76h.5v3.53h-7.25v-.19l5.35-10.51H79.3c-1.54 0-2.06.38-2.26 2.52h-.55V9.36h7.03v.19zm1.47 5.55c0-3.72 1.8-5.98 4.01-5.98s4.01 2.26 4.01 5.98-1.8 5.98-4.01 5.98-4.01-2.26-4.01-5.98zm6.29 0c0-3.34-.67-5.21-2.28-5.21s-2.28 1.87-2.28 5.21.67 5.21 2.28 5.21 2.28-1.87 2.28-5.21zM88.66 4.9c.22-.48.58-.7.89-.7a.83.83 0 0 1 .82.82c0 .17-.07.36-.22.53l-2.09 2.47h-.77l1.37-3.12zm3.07-.02c.24-.46.58-.62.91-.62.5 0 .79.41.79.79a.76.76 0 0 1-.24.55l-2.3 2.42h-.77l1.61-3.14zm15.45 15.33v.58c-.34.07-.79.19-1.32.19-.86 0-1.39-.53-1.39-1.7v-.1c-.48 1.27-1.42 1.9-2.54 1.9-1.75 0-2.62-1.32-2.62-3.22 0-2.28 1.27-3.31 3.53-3.91l1.37-.36v-1.75c0-1.44-.55-1.94-1.46-1.94s-1.44.77-1.44 1.7c0 .72-.31.91-.77.91-.43 0-.77-.22-.77-.86 0-1.2 1.39-2.52 2.98-2.52 1.99 0 3.1 1.42 3.1 3.43v6.26c0 1.13.36 1.42 1.34 1.39zm-2.98-2.98v-2.9l-1.18.34c-1.68.53-1.99 1.7-1.99 3.1s.58 2.23 1.56 2.23c.84 0 1.61-.94 1.61-2.76zM103 8.01h-.79l1.51-3.12c.24-.5.55-.67.86-.67.5 0 .91.41.91.86 0 .19-.1.43-.29.62L102.99 8z"/><use xlink:href="#D"/><path d="M125.71 20.26v.58h-2.88v-1.61c-.55 1.13-1.58 1.85-2.9 1.85-1.58 0-2.5-1.18-2.5-2.98v-6.36c0-1.44-.17-1.7-1.34-1.8v-.58h2.98v8.67c0 1.46.55 1.99 1.49 1.99 1.2 0 2.18-1.03 2.18-2.5v-5.78c0-1.44-.17-1.7-1.56-1.8v-.58h3.19v9.1c0 1.44.17 1.7 1.34 1.8zm-4.94-12.24h-.79l1.51-3.12c.24-.5.55-.67.86-.67.5 0 .91.41.91.86 0 .19-.1.43-.29.62l-2.21 2.3zM9.26 46.21v.58c-.34.07-.79.19-1.32.19-.86 0-1.39-.53-1.39-1.7v-.1c-.48 1.27-1.42 1.9-2.54 1.9-1.75 0-2.62-1.32-2.62-3.22 0-2.28 1.27-3.31 3.53-3.91l1.37-.36v-1.75c0-1.44-.55-1.94-1.46-1.94s-1.44.77-1.44 1.7c0 .72-.31.91-.77.91-.43 0-.77-.22-.77-.86 0-1.2 1.39-2.52 2.98-2.52 1.99 0 3.1 1.42 3.1 3.43v6.26c0 1.13.36 1.42 1.34 1.39zm-2.98-2.98v-2.9l-1.18.34c-1.68.53-1.99 1.7-1.99 3.1S3.69 46 4.67 46c.84 0 1.61-.94 1.61-2.76zm6.9 1.25c0 1.44.17 1.66 1.25 1.78v.58H10.3v-.58c1.08-.12 1.25-.34 1.25-1.78v-11.3c0-1.44-.17-1.7-1.34-1.8v-.58h2.98v13.68zm12.19 1.78v.58h-2.74l-3.19-5.95h-.86v3.6c0 1.44.17 1.66 1.25 1.78v.58H15.7v-.58c1.08-.12 1.25-.34 1.25-1.78v-11.3c0-1.44-.17-1.7-1.34-1.8v-.58h2.98v9.31h.94l2.4-3.12c.62-.82.14-.96-.86-1.06v-.58h3.67v.58c-.91.1-1.27.24-1.9 1.06l-2.26 2.93 3.07 5.3c.53.89.84.94 1.73 1.03zm8.61-.05v.58c-.34.07-.79.19-1.32.19-.86 0-1.39-.53-1.39-1.7v-.1c-.48 1.27-1.42 1.9-2.54 1.9-1.75 0-2.62-1.32-2.62-3.22 0-2.28 1.27-3.31 3.53-3.91l1.37-.36v-1.75c0-1.44-.55-1.94-1.46-1.94s-1.44.77-1.44 1.7c0 .72-.31.91-.77.91-.43 0-.77-.22-.77-.86 0-1.2 1.39-2.52 2.98-2.52 1.99 0 3.1 1.42 3.1 3.43v6.26c0 1.13.36 1.42 1.34 1.39zM31 43.23v-2.9l-1.18.34c-1.68.53-1.99 1.7-1.99 3.1S28.41 46 29.39 46c.84 0 1.61-.94 1.61-2.76zm9.63 2.48v.79c-.62.38-1.32.58-2.11.58-1.46 0-2.3-.84-2.3-2.66v-8.28h-1.68v-.7c1.68-.24 2.52-1.3 2.71-3.34h.65v3.26h2.62v.77H37.9v7.97c0 1.54.5 1.92 1.39 1.92.5 0 .94-.12 1.34-.31z"/><use xlink:href="#D" x="-66.72" y="26"/><path d="M51.34 40.86v.26c0 3.72.79 5.18 2.54 5.18 1.32 0 2.23-1.13 2.33-2.86H57c-.14 2.14-1.3 3.62-3.31 3.62-2.71 0-4.08-2.21-4.08-5.95s1.75-6 3.82-6 3.62 2.11 3.62 5.52v.22h-5.71zm.02-.77h4.01c0-2.57-.62-4.2-1.94-4.2s-1.94 1.42-2.06 4.2zm2.21-6.07h-.79l1.51-3.12c.24-.5.55-.67.86-.67.5 0 .91.41.91.86 0 .19-.1.43-.29.62l-2.21 2.3z"/><use xlink:href="#E"/><use xlink:href="#F"/><use xlink:href="#G"/><path d="M85.73 35.94v-.58h2.98v9.12c0 1.44.17 1.66 1.25 1.78v.58h-4.13v-.58c1.08-.12 1.25-.34 1.25-1.78v-6.74c0-1.44-.17-1.7-1.34-1.8zm2.9-5.04c.24-.5.55-.67.86-.67.5 0 .91.41.91.86 0 .19-.1.43-.29.62l-2.21 2.3h-.79l1.51-3.12z"/><use xlink:href="#H"/><path d="M110.21 46.21v.58c-.34.07-.79.19-1.32.19-.86 0-1.39-.53-1.39-1.7v-.1c-.48 1.27-1.42 1.9-2.54 1.9-1.75 0-2.62-1.32-2.62-3.22 0-2.28 1.27-3.31 3.53-3.91l1.37-.36v-1.75c0-1.44-.55-1.94-1.46-1.94s-1.44.77-1.44 1.7c0 .72-.31.91-.77.91-.43 0-.77-.22-.77-.86 0-1.2 1.39-2.52 2.98-2.52 1.99 0 3.1 1.42 3.1 3.43v6.26c0 1.13.36 1.42 1.34 1.39zm-2.98-2.98v-2.9l-1.18.34c-1.68.53-1.99 1.7-1.99 3.1s.58 2.23 1.56 2.23c.84 0 1.61-.94 1.61-2.76zm-1.2-9.22h-.79l1.51-3.12c.24-.5.55-.67.86-.67.5 0 .91.41.91.86 0 .19-.1.43-.29.62l-2.21 2.3z"/><use xlink:href="#I"/><path d="M124.85 46.21v.58c-.34.07-.79.19-1.32.19-.86 0-1.39-.53-1.39-1.7v-.1c-.48 1.27-1.42 1.9-2.54 1.9-1.75 0-2.62-1.32-2.62-3.22 0-2.28 1.27-3.31 3.53-3.91l1.37-.36v-1.75c0-1.44-.55-1.94-1.46-1.94s-1.44.77-1.44 1.7c0 .72-.31.91-.77.91-.43 0-.77-.22-.77-.86 0-1.2 1.39-2.52 2.98-2.52 1.99 0 3.1 1.42 3.1 3.43v6.26c0 1.13.36 1.42 1.34 1.39zm-2.98-2.98v-2.9l-1.18.34c-1.68.53-1.99 1.7-1.99 3.1s.58 2.23 1.56 2.23c.84 0 1.61-.94 1.61-2.76zm9.62 2.48v.79c-.62.38-1.32.58-2.11.58-1.46 0-2.3-.84-2.3-2.66v-8.28h-1.68v-.7c1.68-.24 2.52-1.3 2.71-3.34h.65v3.26h2.62v.77h-2.62v7.97c0 1.54.5 1.92 1.39 1.92.5 0 .94-.12 1.34-.31zm10.37.55v.58h-2.88v-1.61c-.55 1.13-1.58 1.85-2.9 1.85-1.58 0-2.5-1.18-2.5-2.98v-6.36c0-1.44-.17-1.7-1.34-1.8v-.58h2.98v8.66c0 1.46.55 1.99 1.49 1.99 1.2 0 2.18-1.03 2.18-2.5v-5.78c0-1.44-.17-1.7-1.56-1.8v-.58h3.19v9.1c0 1.44.17 1.7 1.34 1.8z"/><use xlink:href="#H" x="51.88"/><use xlink:href="#G" x="78.6"/><path d="M176.85 41.55c0 3.41-2.02 5.52-4.54 5.52-2.09 0-3.65-1.54-3.65-3.94h.82c0 1.78 1.1 3.02 2.57 3.02 2.28 0 3.02-1.99 3.02-4.63 0-2.21-.7-4.01-2.62-4.01-1.27 0-2.06.91-2.57 2.16l-.7-.19 1.15-8.69h6.24l-.17 1.58h-5.42l-.72 5.42c.5-.6 1.3-1.13 2.45-1.13 2.16 0 4.13 1.82 4.13 4.87z"/><use xlink:href="#J"/><path d="M200.71 35.36v.58c-.79.19-.96.34-1.3 1.42l-2.98 9.72H196l-3.22-9.75c-.41-1.25-.98-1.37-1.42-1.39v-.58h4.22v.58c-1.37.12-1.42.29-1.08 1.34l2.11 6.79 1.94-6.72c.31-1.06.19-1.22-1.06-1.42v-.58h3.19z"/><use xlink:href="#B" x="162.93" y="26"/><use xlink:href="#E" x="151.74"/><use xlink:href="#H" x="127.31"/><use xlink:href="#J" x="46.46"/><use xlink:href="#I" x="127.29"/><path d="M1.06 61.94v-.58h2.98v9.12c0 1.44.17 1.66 1.25 1.78v.58H1.15v-.58c1.08-.12 1.25-.34 1.25-1.78v-6.74c0-1.44-.17-1.7-1.34-1.8zm.84-3.67c0-.72.48-1.25 1.22-1.25s1.22.53 1.22 1.25-.5 1.25-1.22 1.25-1.22-.53-1.22-1.25z"/><use xlink:href="#K"/><path d="M17.25 67.1c0-3.72 1.8-5.98 4.01-5.98s4.01 2.26 4.01 5.98-1.8 5.98-4.01 5.98-4.01-2.26-4.01-5.98zm6.29 0c0-3.34-.67-5.21-2.28-5.21s-2.28 1.87-2.28 5.21.67 5.21 2.28 5.21 2.28-1.87 2.28-5.21zM20.9 56.9c.22-.48.58-.7.89-.7a.83.83 0 0 1 .82.82c0 .17-.07.36-.22.53l-2.09 2.47h-.77l1.37-3.12zm3.07-.02c.24-.46.58-.62.91-.62.5 0 .79.41.79.79a.76.76 0 0 1-.24.55l-2.3 2.42h-.77l1.61-3.14z"/><use xlink:href="#E" x="-31.8" y="26"/><use xlink:href="#B" x="-3.19" y="52"/><use xlink:href="#L"/><use xlink:href="#L" x="10.13"/><path d="M82.1 59.27v11.09c0 1.58.22 1.78 1.51 1.9v.58h-4.92v-.58c1.46-.12 1.68-.31 1.68-1.9V58.74l-4.32 14.09h-.43L71.4 58.72v11.64c0 1.58.22 1.78 1.68 1.9v.58h-4.03v-.58c1.3-.12 1.51-.31 1.51-1.9V59.27c0-1.58-.22-1.78-1.51-1.9v-.58h3.6l3.67 12.38 3.82-12.38h3.48v.58c-1.3.12-1.51.31-1.51 1.9z"/><use xlink:href="#B" x="46.59" y="52"/><use xlink:href="#D" x="-14.23" y="52"/><path d="M108.31 64.77c-.17-1.9-.82-2.88-2.18-2.88-1.56 0-2.35 1.97-2.35 5.23 0 3.48.79 5.18 2.38 5.18 1.25 0 2.02-1.03 2.18-2.86h.79c-.19 2.28-1.3 3.62-3.26 3.62-2.35 0-3.82-2.47-3.82-5.95 0-3.74 1.9-6 4.1-6 1.3 0 2.16.55 2.74 1.03v2.62h-.58z"/><use xlink:href="#B" x="72.27" y="52"/><use xlink:href="#K" x="113.13"/><use xlink:href="#B" x="91.97" y="52"/><use xlink:href="#E" x="80.78" y="26"/><path d="M152.61 65.68v.96h-4.82v-.96h4.82zm11.33 2.83c0 2.64-2.02 4.32-4.49 4.32h-5.38v-.58c1.3-.12 1.51-.31 1.51-1.9V59.26c0-1.58-.22-1.78-1.51-1.9v-.58h4.68c2.76 0 4.46 1.51 4.46 3.84 0 1.82-1.13 3.14-2.74 3.72 1.99.41 3.46 1.94 3.46 4.15zm-6.62-10.87v6.48h1.1c2.06 0 2.98-1.25 2.98-3.29s-.91-3.19-2.98-3.19h-1.1zm4.8 10.87c0-2.18-.89-3.55-2.9-3.55h-1.9v6.07c0 .67.14.96 1.18.96h.72c2.02 0 2.9-1.32 2.9-3.48z"/><use xlink:href="#B" x="127.39" y="52"/><use xlink:href="#H" x="83.59" y="26"/><use xlink:href="#F" x="118.8" y="26"/><path d="M0 102.53c1.34 0 2.38-1.01 2.38-3.05v-9.75c0-1.44-.17-1.7-1.34-1.8v-.58h2.98v11.4c0 3.55-2.33 4.42-4.01 4.42v-.65zm1.87-18.27c0-.72.48-1.25 1.22-1.25s1.22.53 1.22 1.25-.5 1.25-1.22 1.25-1.22-.53-1.22-1.25zM14.4 98.21v.58c-.34.07-.79.19-1.32.19-.86 0-1.39-.53-1.39-1.7v-.1c-.48 1.27-1.42 1.9-2.54 1.9-1.75 0-2.62-1.32-2.62-3.22 0-2.28 1.27-3.31 3.53-3.91l1.37-.36v-1.75c0-1.44-.55-1.94-1.46-1.94s-1.44.77-1.44 1.7c0 .72-.31.91-.77.91-.43 0-.77-.22-.77-.86 0-1.2 1.39-2.52 2.98-2.52 1.99 0 3.1 1.42 3.1 3.43v6.26c0 1.13.36 1.42 1.34 1.39zm-2.98-2.98v-2.9l-1.18.34c-1.68.53-1.99 1.7-1.99 3.1S8.83 98 9.81 98c.84 0 1.61-.94 1.61-2.76zm-1.2-9.22h-.79l1.51-3.12c.24-.5.55-.67.86-.67.5 0 .91.41.91.86 0 .19-.1.43-.29.62L10.21 86z"/><use xlink:href="#D" x="-92.78" y="78"/><path d="M37.99 98.26v.58h-4.03v-.58c.98-.12 1.15-.34 1.15-1.78v-6.55c0-1.42-.5-1.92-1.39-1.92-1.18 0-2.14 1.2-2.14 2.9v5.57c0 1.44.17 1.66 1.15 1.78v.58h-3.94v-.58c.98-.12 1.15-.34 1.15-1.78v-6.55c0-1.42-.5-1.92-1.39-1.92-1.13 0-2.14 1.2-2.14 2.9v5.57c0 1.44.17 1.66 1.15 1.78v.58h-4.03v-.58c1.08-.12 1.25-.34 1.25-1.78v-6.74c0-1.44-.17-1.7-1.34-1.8v-.58h2.76v1.82c.48-1.25 1.46-2.06 2.66-2.06s2.09.67 2.47 1.82c.53-1.13 1.49-1.82 2.69-1.82 1.75 0 2.71 1.3 2.71 3.43v5.93c0 1.44.17 1.66 1.25 1.78zm10.71 0v.58h-2.88v-1.61c-.55 1.13-1.58 1.85-2.9 1.85-1.58 0-2.5-1.18-2.5-2.98v-6.36c0-1.44-.17-1.7-1.34-1.8v-.58h2.98v8.66c0 1.46.55 1.99 1.49 1.99 1.2 0 2.18-1.03 2.18-2.5v-5.78c0-1.44-.17-1.7-1.56-1.8v-.58h3.19v9.1c0 1.44.17 1.7 1.34 1.8zM43.28 82.9c.22-.48.58-.7.89-.7a.83.83 0 0 1 .82.82c0 .17-.07.36-.22.53l-2.09 2.47h-.77l1.37-3.12zm3.07-.02c.24-.46.58-.62.91-.62.5 0 .79.41.79.79a.76.76 0 0 1-.24.55l-2.3 2.42h-.77l1.61-3.14z"/><use xlink:href="#C" x="-7.96" y="78"/><use xlink:href="#B" x="20.88" y="78"/><use xlink:href="#G" x="-6.98" y="52"/><path d="M88.2 98.26v.58h-4.03v-.58c.98-.12 1.15-.34 1.15-1.78v-6.53c0-1.42-.5-1.94-1.44-1.94-1.25 0-2.23 1.32-2.23 2.98v5.5c0 1.44.17 1.66 1.15 1.78v.58h-4.03v-.58c1.08-.12 1.25-.34 1.25-1.78v-11.3c0-1.44-.17-1.7-1.34-1.8v-.58h2.98v5.9c.53-.98 1.44-1.58 2.57-1.58 1.75 0 2.74 1.32 2.74 3.48v5.88c0 1.44.17 1.66 1.25 1.78z"/><use xlink:href="#B" x="51.22" y="78"/><use xlink:href="#F" x="31.85" y="52"/><path d="M107.28 97.73c0-.77.53-1.34 1.32-1.34s1.3.58 1.3 1.34-.5 1.34-1.3 1.34-1.32-.58-1.32-1.34z"/></g><defs ><path id="B" d="M40.15 14.86v.26c0 3.72.79 5.18 2.54 5.18 1.32 0 2.23-1.13 2.33-2.86h.79c-.14 2.14-1.3 3.62-3.31 3.62-2.71 0-4.08-2.21-4.08-5.95s1.75-6 3.82-6 3.62 2.11 3.62 5.52v.22h-5.71zm.02-.77h4.01c0-2.57-.62-4.2-1.94-4.2s-1.94 1.42-2.06 4.2z"/><path id="C" d="M66.62 9.36v.58c-.79.19-.96.34-1.3 1.42l-2.98 9.72h-.43l-3.22-9.75c-.41-1.25-.98-1.37-1.42-1.39v-.58h4.22v.58c-1.37.12-1.42.29-1.08 1.34l2.11 6.79 1.94-6.72c.31-1.06.19-1.22-1.06-1.42v-.58h3.19z"/><path id="D" d="M115.22 10.92c0 .79-.26 1.27-.86 1.27-.38 0-.77-.26-.77-.77 0-.24.12-.48.12-.7 0-.41-.29-.62-.72-.62-1.06 0-1.8 1.46-1.8 3.53v4.85c0 1.44.17 1.66 1.61 1.78v.58h-4.49v-.58c1.08-.12 1.25-.34 1.25-1.78v-6.74c0-1.44-.17-1.7-1.34-1.8v-.58h2.76v1.94c.46-1.34 1.32-2.18 2.47-2.18s1.78.77 1.78 1.8z"/><path id="E" d="M58.9 43.47h.58c.07 2.02 1.06 2.83 2.5 2.83 1.25 0 2.04-.79 2.04-1.82 0-1.18-.72-1.85-1.75-2.45l-1.32-.77c-1.2-.7-1.92-1.51-1.92-3.07 0-1.97 1.42-3.07 3.07-3.07 1.08 0 2.18.46 2.81 1.03v2.26h-.58c-.05-1.27-.55-2.52-2.23-2.52-1.1 0-1.8.72-1.8 1.85 0 1.03.58 1.58 1.63 2.18l1.54.86c1.06.6 1.9 1.56 1.9 2.98 0 1.99-1.49 3.31-3.38 3.31-1.44 0-2.21-.46-3.07-1.03v-2.57z"/><path id="F" d="M74.06 35.55l-5.35 10.51h2.54c1.56 0 1.9-.55 2.11-2.76h.5v3.53h-7.25v-.19l5.35-10.51h-2.14c-1.54 0-2.06.38-2.26 2.52h-.55v-3.29h7.03v.19z"/><path id="G" d="M84.96 46.26v.58h-2.74l-3.19-5.95h-.86v3.6c0 1.44.17 1.66 1.25 1.78v.58h-4.13v-.58c1.08-.12 1.25-.34 1.25-1.78v-11.3c0-1.44-.17-1.7-1.34-1.8v-.58h2.98v9.31h.94l2.4-3.12c.62-.82.14-.96-.86-1.06v-.58h3.67v.58c-.91.1-1.27.24-1.9 1.06l-2.26 2.93 3.07 5.3c.53.89.84.94 1.73 1.03z"/><path id="H" d="M100.78 46.26v.58h-4.03v-.58c.98-.12 1.15-.34 1.15-1.78v-6.53c0-1.42-.5-1.94-1.44-1.94-1.25 0-2.23 1.32-2.23 2.98v5.5c0 1.44.17 1.66 1.15 1.78v.58h-4.03v-.58c1.08-.12 1.25-.34 1.25-1.78v-6.74c0-1.44-.17-1.7-1.34-1.8v-.58h2.76v1.82c.48-1.27 1.49-2.06 2.78-2.06 1.75 0 2.74 1.32 2.74 3.48v5.88c0 1.44.17 1.66 1.25 1.78z"/><path id="I" d="M114.12 44.48c0 1.44.17 1.66 1.25 1.78v.58h-4.13v-.58c1.08-.12 1.25-.34 1.25-1.78v-11.3c0-1.44-.17-1.7-1.34-1.8v-.58h2.98v13.68z"/><path id="J" d="M184.82 40.86v.26c0 3.72.79 5.18 2.54 5.18 1.32 0 2.23-1.13 2.33-2.86h.79c-.14 2.14-1.3 3.62-3.31 3.62-2.71 0-4.08-2.21-4.08-5.95s1.75-6 3.82-6 3.62 2.11 3.62 5.52v.22h-5.71zm.02-.77h4.01c0-2.57-.62-4.2-1.94-4.2s-1.94 1.42-2.06 4.2zm2.21-6.07h-.79l1.51-3.12c.24-.5.55-.67.86-.67.5 0 .91.41.91.86 0 .19-.1.43-.29.62l-2.21 2.3z"/><path id="K" d="M15.72 72.26v.58h-2.66v-1.97c-.53 1.42-1.42 2.21-2.5 2.21-2.09 0-3.74-2.3-3.74-5.98s1.66-5.98 3.74-5.98c.96 0 1.75.6 2.28 1.7v-3.65c0-1.44-.17-1.7-1.34-1.8v-.58h2.98v13.68c0 1.44.17 1.66 1.25 1.78zm-2.81-5.16c0-3.46-.89-5.21-2.28-5.21s-2.04 2.02-2.04 5.21.62 5.21 2.04 5.21 2.28-1.75 2.28-5.21z"/><path id="L" d="M52.75 67.1c0 3.67-1.61 5.98-3.65 5.98-1.08 0-1.97-.72-2.52-1.97l-1.01 1.97h-.38v-13.9c0-1.44-.17-1.7-1.34-1.8v-.58h2.98v6.17c.53-1.18 1.32-1.85 2.28-1.85 2.04 0 3.65 2.3 3.65 5.98zm-1.73 0c0-3.19-.6-5.21-1.99-5.21s-2.21 1.75-2.21 5.21.86 5.21 2.21 5.21 1.99-2.02 1.99-5.21z"/></defs></svg>