<svg xmlns="http://www.w3.org/2000/svg" xmlns:xlink="http://www.w3.org/1999/xlink" viewBox="0 0 196.75 47.07" xmlns:v="https://vecta.io/nano"><g fill="#fff"><path d="M13.06 3.07v11.09c0 1.58.22 1.78 1.51 1.9v.58H9.65v-.58c1.46-.12 1.68-.31 1.68-1.9V2.54L7.01 16.63h-.43L2.35 2.52v11.64c0 1.58.22 1.78 1.68 1.9v.58H0v-.58c1.3-.12 1.51-.31 1.51-1.9V3.07c0-1.58-.22-1.78-1.51-1.9V.6h3.6l3.67 12.38L11.09.6h3.48v.58c-1.3.12-1.51.31-1.51 1.9z"/><use xlink:href="#B"/><path d="M31.95 6.72c0 .79-.26 1.27-.86 1.27-.38 0-.77-.26-.77-.77 0-.24.12-.48.12-.7 0-.41-.29-.62-.72-.62-1.06 0-1.8 1.46-1.8 3.53v4.85c0 1.44.17 1.66 1.61 1.78v.58h-4.49v-.58c1.08-.12 1.25-.34 1.25-1.78V7.54c0-1.44-.17-1.7-1.34-1.8v-.58h2.76V7.1c.46-1.34 1.32-2.18 2.47-2.18s1.78.77 1.78 1.8zm7.31 1.85c-.17-1.9-.82-2.88-2.18-2.88-1.56 0-2.35 1.97-2.35 5.23 0 3.48.79 5.18 2.38 5.18 1.25 0 2.02-1.03 2.18-2.86h.79c-.19 2.28-1.3 3.62-3.26 3.62-2.35 0-3.82-2.47-3.82-5.95 0-3.74 1.9-6 4.1-6 1.3 0 2.16.55 2.74 1.03v2.62h-.58z"/><use xlink:href="#B" x="25.68"/><path d="M59.81 16.06v.58h-2.66v-1.97c-.53 1.42-1.42 2.21-2.5 2.21-2.09 0-3.74-2.3-3.74-5.98s1.66-5.98 3.74-5.98c.96 0 1.75.6 2.28 1.7V2.98c0-1.44-.17-1.7-1.34-1.8V.6h2.98v13.68c0 1.44.17 1.66 1.25 1.78zM57 10.9c0-3.46-.89-5.21-2.28-5.21s-2.04 2.02-2.04 5.21.62 5.21 2.04 5.21S57 14.36 57 10.9z"/><use xlink:href="#B" x="45.38"/><path d="M70.63 13.27h.58c.07 2.02 1.06 2.83 2.5 2.83 1.25 0 2.04-.79 2.04-1.82 0-1.18-.72-1.85-1.75-2.45l-1.32-.77c-1.2-.7-1.92-1.51-1.92-3.07 0-1.97 1.42-3.07 3.07-3.07 1.08 0 2.18.46 2.81 1.03v2.26h-.58c-.05-1.27-.55-2.52-2.23-2.52-1.1 0-1.8.72-1.8 1.85 0 1.03.58 1.58 1.63 2.18l1.54.86c1.06.6 1.9 1.56 1.9 2.98 0 1.99-1.49 3.31-3.38 3.31-1.44 0-2.21-.46-3.07-1.03v-2.57zm12.94-3.79v.96h-4.82v-.96h4.82zm11.33 2.83c0 2.64-2.02 4.32-4.49 4.32h-5.38v-.58c1.3-.12 1.51-.31 1.51-1.9V3.07c0-1.58-.22-1.78-1.51-1.9V.6h4.68c2.76 0 4.46 1.51 4.46 3.84 0 1.82-1.13 3.14-2.74 3.72 1.99.41 3.46 1.94 3.46 4.15zM88.28 1.44v6.48h1.1c2.06 0 2.98-1.25 2.98-3.29s-.91-3.19-2.98-3.19h-1.1zm4.8 10.87c0-2.18-.89-3.55-2.9-3.55h-1.9v6.07c0 .67.14.96 1.18.96h.72c2.02 0 2.9-1.32 2.9-3.48zm5.42-1.65v.26c0 3.72.79 5.18 2.54 5.18 1.32 0 2.23-1.13 2.33-2.86h.79c-.14 2.14-1.3 3.62-3.31 3.62-2.71 0-4.08-2.21-4.08-5.95s1.75-6 3.82-6 3.62 2.11 3.62 5.52v.22H98.5zm.02-.77h4.01c0-2.57-.62-4.2-1.94-4.2s-1.94 1.42-2.06 4.2z"/><use xlink:href="#C"/><path d="M123.82 5.35l-5.35 10.51h2.54c1.56 0 1.9-.55 2.11-2.76h.5v3.53h-7.25v-.19l5.35-10.51h-2.14c-1.54 0-2.06.38-2.26 2.52h-.55V5.16h7.03v.19zM144 16.06v.58h-4.03v-.58c.98-.12 1.15-.34 1.15-1.78V7.73c0-1.42-.5-1.92-1.39-1.92-1.18 0-2.14 1.2-2.14 2.9v5.57c0 1.44.17 1.66 1.15 1.78v.58h-3.94v-.58c.98-.12 1.15-.34 1.15-1.78V7.73c0-1.42-.5-1.92-1.39-1.92-1.13 0-2.14 1.2-2.14 2.9v5.57c0 1.44.17 1.66 1.15 1.78v.58h-4.03v-.58c1.08-.12 1.25-.34 1.25-1.78V7.54c0-1.44-.17-1.7-1.34-1.8v-.58h2.76v1.82c.48-1.25 1.46-2.06 2.66-2.06s2.09.67 2.47 1.82c.53-1.13 1.49-1.82 2.69-1.82 1.75 0 2.71 1.3 2.71 3.43v5.93c0 1.44.17 1.66 1.25 1.78zm1.22-10.32v-.58h2.98v9.12c0 1.44.17 1.66 1.25 1.78v.58h-4.13v-.58c1.08-.12 1.25-.34 1.25-1.78V7.54c0-1.44-.17-1.7-1.34-1.8zm.84-3.67c0-.72.48-1.25 1.22-1.25s1.22.53 1.22 1.25-.5 1.25-1.22 1.25-1.22-.53-1.22-1.25z"/><use xlink:href="#C" x="44.95"/><path d="M161.73 10.9c0-3.72 1.8-5.98 4.01-5.98s4.01 2.26 4.01 5.98-1.8 5.98-4.01 5.98-4.01-2.26-4.01-5.98zm6.29 0c0-3.34-.67-5.21-2.28-5.21s-2.28 1.87-2.28 5.21.67 5.21 2.28 5.21 2.28-1.87 2.28-5.21zM165.38.7c.22-.48.58-.7.89-.7a.83.83 0 0 1 .82.82c0 .17-.07.36-.22.53l-2.09 2.47h-.77L165.38.7zm3.07-.02c.24-.46.58-.62.91-.62.5 0 .79.41.79.79a.76.76 0 0 1-.24.55l-2.3 2.42h-.77l1.61-3.14zm3.12 12.59h.58c.07 2.02 1.06 2.83 2.5 2.83 1.25 0 2.04-.79 2.04-1.82 0-1.18-.72-1.85-1.75-2.45l-1.32-.77c-1.2-.7-1.92-1.51-1.92-3.07 0-1.97 1.42-3.07 3.07-3.07 1.08 0 2.18.46 2.81 1.03v2.26H177c-.05-1.27-.55-2.52-2.23-2.52-1.1 0-1.8.72-1.8 1.85 0 1.03.58 1.58 1.63 2.18l1.54.86c1.06.6 1.9 1.56 1.9 2.98 0 1.99-1.49 3.31-3.38 3.31-1.44 0-2.21-.46-3.07-1.03v-2.57zm9.87-2.61v.26c0 3.72.79 5.18 2.54 5.18 1.32 0 2.23-1.13 2.33-2.86h.79c-.14 2.14-1.3 3.62-3.31 3.62-2.71 0-4.08-2.21-4.08-5.95s1.75-6 3.82-6 3.62 2.11 3.62 5.52v.22h-5.71zm.02-.77h4.01c0-2.57-.62-4.2-1.94-4.2s-1.94 1.42-2.06 4.2zm2.21-6.07h-.79L184.39.7c.24-.5.55-.67.86-.67.5 0 .91.41.91.86 0 .19-.1.43-.29.62l-2.21 2.3zm13.08 13.58c0 2.09-2.04 3.58-4.25 3.58s-3.94-.94-3.94-2.71c0-1.08.74-1.97 1.82-2.47-.72-.26-1.25-.77-1.25-1.68 0-1.32 1.27-1.82 2.21-2.06-1.22-.43-2.18-1.61-2.18-3.31 0-2.21 1.54-3.58 3.24-3.58h4.22v.89h-2.14c.72.58 1.2 1.51 1.2 2.69 0 1.7-.94 2.9-2.16 3.36h.02c-1.44.48-3.07.62-3.07 1.39 0 .7.74.7 2.33.77 1.85.07 3.94.74 3.94 3.14zm-1.32.67c0-1.49-1.06-2.06-2.81-2.06s-2.9.67-2.9 2.04c0 1.61 1.42 2.16 2.9 2.16s2.81-.55 2.81-2.14zm-4.68-9.34c0 1.63.48 2.78 1.66 2.78s1.73-1.15 1.73-2.78-.5-2.81-1.73-2.81-1.66 1.15-1.66 2.81zM7.9 38.94v3.7H.02V41.3c4.37-4.2 5.88-7.13 5.88-10.54 0-1.99-.67-3.55-2.4-3.55-1.44 0-2.57 1.39-2.35 3.84H.34c-.22-2.86 1.18-4.68 3.41-4.68s3.94 1.8 3.94 4.34c0 4.42-3.1 7.34-6.34 10.34h4.24c1.03 0 1.46-.24 1.73-2.11h.58zm10.2-1.59c0 3.41-2.02 5.52-4.54 5.52-2.09 0-3.65-1.54-3.65-3.94h.82c0 1.78 1.1 3.02 2.57 3.02 2.28 0 3.02-1.99 3.02-4.63 0-2.21-.7-4.01-2.62-4.01-1.27 0-2.06.91-2.57 2.16l-.7-.19 1.15-8.69h6.24l-.17 1.58h-5.42l-.72 5.42c.5-.6 1.3-1.13 2.45-1.13 2.16 0 4.13 1.82 4.13 4.87zm1.51-6.62c0-2.81 1.37-4.37 3-4.37s3 1.56 3 4.37-1.37 4.37-3 4.37-3-1.56-3-4.37zm4.56 0c0-2.64-.62-3.72-1.56-3.72s-1.56 1.08-1.56 3.72.62 3.72 1.56 3.72 1.56-1.08 1.56-3.72zm6.24-4.13h1.06l-8.64 16.03H21.8l8.62-16.03zM27.6 38.51c0-2.81 1.37-4.37 3-4.37s3 1.56 3 4.37-1.37 4.37-3 4.37-3-1.56-3-4.37zm4.56 0c0-2.64-.62-3.72-1.56-3.72s-1.56 1.08-1.56 3.72.62 3.72 1.56 3.72 1.56-1.08 1.56-3.72zm15.29 3.5v.58c-.34.07-.79.19-1.32.19-.86 0-1.39-.53-1.39-1.7v-.1c-.48 1.27-1.42 1.9-2.54 1.9-1.75 0-2.62-1.32-2.62-3.22 0-2.28 1.27-3.31 3.53-3.91l1.37-.36v-1.75c0-1.44-.55-1.94-1.46-1.94s-1.44.77-1.44 1.7c0 .72-.31.91-.77.91-.43 0-.77-.22-.77-.86 0-1.2 1.39-2.52 2.98-2.52 1.99 0 3.1 1.42 3.1 3.43v6.26c0 1.13.36 1.42 1.34 1.39zm-2.98-2.98v-2.9l-1.18.34c-1.68.53-1.99 1.7-1.99 3.1s.58 2.23 1.56 2.23c.84 0 1.61-.94 1.61-2.76zm-1.2-9.22h-.79l1.51-3.12c.24-.5.55-.67.86-.67.5 0 .91.41.91.86 0 .19-.1.43-.29.62l-2.21 2.3zm12.22 2.91c0 .79-.26 1.27-.86 1.27-.38 0-.77-.26-.77-.77 0-.24.12-.48.12-.7 0-.41-.29-.62-.72-.62-1.06 0-1.8 1.46-1.8 3.53v4.85c0 1.44.17 1.66 1.61 1.78v.58h-4.49v-.58c1.08-.12 1.25-.34 1.25-1.78v-6.74c0-1.44-.17-1.7-1.34-1.8v-.58h2.76v1.94c.46-1.34 1.32-2.18 2.47-2.18s1.78.77 1.78 1.8z"/><use xlink:href="#B" x="40.63" y="26"/><use xlink:href="#D"/><path d="M71.21 36.9c0-3.72 1.8-5.98 4.01-5.98s4.01 2.26 4.01 5.98-1.8 5.98-4.01 5.98-4.01-2.26-4.01-5.98zm6.29 0c0-3.34-.67-5.21-2.28-5.21s-2.28 1.87-2.28 5.21.67 5.21 2.28 5.21 2.28-1.87 2.28-5.21zm-2.64-10.2c.22-.48.58-.7.89-.7a.83.83 0 0 1 .82.82c0 .17-.07.36-.22.53l-2.09 2.47h-.77l1.37-3.12zm3.07-.02c.24-.46.58-.62.91-.62.5 0 .79.41.79.79a.76.76 0 0 1-.24.55l-2.3 2.42h-.77l1.61-3.14z"/><use xlink:href="#E"/><use xlink:href="#E" x="10.78"/><path d="M110.74 31.16v.58c-.94.17-1.03.29-1.39 1.39l-3.79 11.59c-.62 1.9-1.3 2.35-2.35 2.35-1.13 0-1.73-.6-1.82-1.54-.05-.5.17-.91.67-.96.48-.05.86.19.89.77.02.72.29.96.67.96.29 0 .7-.12 1.18-1.58l.94-2.83-2.95-8.76c-.43-1.27-1.01-1.34-1.51-1.39v-.58h4.22v.58c-1.32.12-1.32.22-.96 1.34l1.97 6.41 2.09-6.36c.36-1.08.26-1.27-.96-1.39v-.58h3.12z"/><use xlink:href="#B" x="95.44" y="26"/><use xlink:href="#D" x="54.81"/><path d="M126.38 41.53c0-.77.53-1.34 1.32-1.34s1.3.58 1.3 1.34-.5 1.34-1.3 1.34-1.32-.58-1.32-1.34zm1.32-15.17c.65 0 1.06.46 1.01 1.2l-.62 10.46h-.77l-.62-10.46c-.05-.74.36-1.2 1.01-1.2z"/></g><defs ><path id="B" d="M17.69 10.66v.26c0 3.72.79 5.18 2.54 5.18 1.32 0 2.23-1.13 2.33-2.86h.79c-.14 2.14-1.3 3.62-3.31 3.62-2.71 0-4.08-2.21-4.08-5.95s1.75-6 3.82-6 3.62 2.11 3.62 5.52v.22h-5.71zm.02-.77h4.01c0-2.57-.62-4.2-1.94-4.2s-1.94 1.42-2.06 4.2z"/><path id="C" d="M115.32 16.06v.58h-4.03v-.58c.98-.12 1.15-.34 1.15-1.78V7.75c0-1.42-.5-1.94-1.44-1.94-1.25 0-2.23 1.32-2.23 2.98v5.5c0 1.44.17 1.66 1.15 1.78v.58h-4.03v-.58c1.08-.12 1.25-.34 1.25-1.78V7.54c0-1.44-.17-1.7-1.34-1.8v-.58h2.76v1.82c.48-1.27 1.49-2.06 2.78-2.06 1.75 0 2.74 1.32 2.74 3.48v5.88c0 1.44.17 1.66 1.25 1.78z"/><path id="D" d="M68.45 40.28c0 1.44.17 1.66 1.25 1.78v.58h-4.13v-.58c1.08-.12 1.25-.34 1.25-1.78v-11.3c0-1.44-.17-1.7-1.34-1.8v-.58h2.98v13.68z"/><path id="E" d="M90.31 42.06v.58h-4.03v-.58c.98-.12 1.15-.34 1.15-1.78v-6.53c0-1.42-.5-1.94-1.44-1.94-1.25 0-2.23 1.32-2.23 2.98v5.5c0 1.44.17 1.66 1.15 1.78v.58h-4.03v-.58c1.08-.12 1.25-.34 1.25-1.78v-6.74c0-1.44-.17-1.7-1.34-1.8v-.58h2.76v1.82c.48-1.27 1.49-2.06 2.78-2.06 1.75 0 2.74 1.32 2.74 3.48v5.88c0 1.44.17 1.66 1.25 1.78z"/></defs></svg>