<svg xmlns="http://www.w3.org/2000/svg" xmlns:xlink="http://www.w3.org/1999/xlink" viewBox="0 0 202.51 50.36" xmlns:v="https://vecta.io/nano"><g fill="#fff"><path d="M12.22 19.35v.58H7.56v-.58c1.54-.12 1.51-.26 1.06-1.8l-.72-2.4H3.31l-.67 2.4c-.43 1.54-.46 1.68 1.03 1.8v.58H0v-.58c.91-.12 1.34-.24 1.78-1.8L5.64 3.62h.43l4.37 13.95c.48 1.54.96 1.66 1.78 1.78zm-4.56-5.04L5.52 7.16l-1.99 7.15h4.13zm9.79.48c.26 2.93 1.25 4.54 3.55 4.54 1.87 0 2.98-1.01 2.98-2.76s-.94-2.76-2.52-3.7l-1.75-1.03c-1.68-.98-2.69-2.16-2.69-4.15 0-2.59 1.99-4.03 3.94-4.03s3.34 1.03 3.84 1.42v3.36h-.53c-.26-2.52-1.46-3.94-3.22-3.94-1.66 0-2.62 1.01-2.62 2.66 0 1.46.86 2.28 2.28 3.12l2.09 1.22c1.7 1.01 2.69 2.42 2.69 4.27 0 2.35-1.87 4.39-4.42 4.39-1.94 0-3.5-.79-4.2-1.39v-3.98h.58z"/><use xlink:href="#B"/><use xlink:href="#C"/><use xlink:href="#D"/><path d="M53.86 12.67v4.78c0 1.58.22 1.78 1.94 1.9v.58h-5.18v-.58c1.3-.12 1.51-.31 1.51-1.9V6.36c0-1.58-.22-1.78-1.51-1.9v-.58h4.97c3.05 0 4.8 1.73 4.8 4.39s-1.75 4.39-4.8 4.39h-1.73zm0-7.94v7.1h1.37c2.3 0 3.34-1.37 3.34-3.55s-1.03-3.55-3.34-3.55h-1.37z"/><use xlink:href="#C" x="27.64"/><use xlink:href="#D" x="27.64"/><path d="M84.09 18.79v.79c-.62.38-1.32.58-2.11.58-1.46 0-2.3-.84-2.3-2.66V9.22H78v-.7c1.68-.24 2.52-1.3 2.71-3.34h.65v3.26h2.62v.77h-2.62v7.97c0 1.54.5 1.92 1.39 1.92.5 0 .94-.12 1.34-.31zm1.18-2.23h.58c.07 2.02 1.06 2.83 2.5 2.83 1.25 0 2.04-.79 2.04-1.82 0-1.18-.72-1.85-1.75-2.45l-1.32-.77c-1.2-.7-1.92-1.51-1.92-3.07 0-1.97 1.42-3.07 3.07-3.07 1.08 0 2.18.46 2.81 1.03v2.26h-.58c-.05-1.27-.55-2.52-2.23-2.52-1.1 0-1.8.72-1.8 1.85 0 1.03.58 1.58 1.63 2.18l1.54.86c1.06.6 1.9 1.56 1.9 2.98 0 1.99-1.49 3.31-3.38 3.31-1.44 0-2.21-.46-3.07-1.03v-2.57z"/><use xlink:href="#E"/><use xlink:href="#D" x="64.03"/><use xlink:href="#B" x="87.84"/><use xlink:href="#E" x="23.62"/><use xlink:href="#F"/><path d="M145.44 11.91c0-5.38 2.45-8.26 5.45-8.26s5.47 2.88 5.47 8.26-2.47 8.26-5.47 8.26-5.45-2.83-5.45-8.26zm9.1 0c0-4.58-1.2-7.42-3.65-7.42s-3.62 2.83-3.62 7.42 1.18 7.42 3.62 7.42 3.65-2.83 3.65-7.42zm-6.7-10.78c0-.65.46-1.13 1.1-1.13.72 0 1.15.48 1.15 1.13s-.43 1.15-1.15 1.15c-.65 0-1.1-.48-1.1-1.15zm3.89 0c0-.65.43-1.13 1.15-1.13.65 0 1.1.48 1.1 1.13s-.46 1.15-1.1 1.15c-.72 0-1.15-.48-1.15-1.15z"/><use xlink:href="#G"/><use xlink:href="#G" x="10.78"/><use xlink:href="#H"/><use xlink:href="#F" x="58.46"/><path d="M202.51 19.95c0 1.99-1.61 3.43-2.47 3.79l-.31-.6c1.1-.5 2.11-1.92 1.92-3.31-.22.22-.53.34-.89.34-.79 0-1.32-.55-1.32-1.32s.53-1.34 1.32-1.34 1.75.58 1.75 2.45zm-199.73 20v.26c0 3.72.79 5.18 2.54 5.18 1.32 0 2.23-1.13 2.33-2.86h.79c-.14 2.14-1.3 3.62-3.31 3.62-2.71 0-4.08-2.21-4.08-5.95s1.75-6 3.82-6 3.62 2.11 3.62 5.52v.22H2.78zm.02-.77h4.02c0-2.57-.62-4.2-1.94-4.2s-1.94 1.42-2.06 4.2zm2.21-6.07h-.79l1.51-3.12c.24-.5.55-.67.86-.67.5 0 .91.41.91.86 0 .19-.1.43-.29.62L5 33.1z"/><use xlink:href="#D" x="-32.74" y="26"/><path d="M23.71 44.79v.79c-.62.38-1.32.58-2.11.58-1.46 0-2.3-.84-2.3-2.66v-8.28h-1.68v-.7c1.68-.24 2.52-1.3 2.71-3.34h.65v3.26h2.62v.77h-2.62v7.97c0 1.54.5 1.92 1.39 1.92.5 0 .94-.12 1.34-.31zm2.69-4.84v.26c0 3.72.79 5.18 2.54 5.18 1.32 0 2.23-1.13 2.33-2.86h.79c-.14 2.14-1.3 3.62-3.31 3.62-2.71 0-4.08-2.21-4.08-5.95s1.75-6 3.82-6 3.62 2.11 3.62 5.52v.22H26.4zm.02-.77h4.01c0-2.57-.62-4.2-1.94-4.2s-1.94 1.42-2.06 4.2zm2.21-6.07h-.79l1.51-3.12c.24-.5.55-.67.86-.67.5 0 .91.41.91.86 0 .19-.1.43-.29.62l-2.21 2.3zm14.71 12.24v.58H40.6l-3.19-5.95h-.86v3.6c0 1.44.17 1.66 1.25 1.78v.58h-4.13v-.58c1.08-.12 1.25-.34 1.25-1.78v-11.3c0-1.44-.17-1.7-1.34-1.8v-.58h2.98v9.31h.94l2.4-3.12c.62-.82.14-.96-.86-1.06v-.58h3.67v.58c-.91.1-1.27.24-1.9 1.06l-2.26 2.93 3.07 5.3c.53.89.84.94 1.73 1.03zm14.38 0v.58h-2.88v-1.61c-.55 1.13-1.58 1.85-2.9 1.85-1.58 0-2.5-1.18-2.5-2.98v-6.36c0-1.44-.17-1.7-1.34-1.8v-.58h2.98v8.66c0 1.46.55 1.99 1.49 1.99 1.2 0 2.18-1.03 2.18-2.5v-5.78c0-1.44-.17-1.7-1.56-1.8v-.58h3.19v9.1c0 1.44.17 1.7 1.34 1.8zm-7.94-13.97c0-.65.46-1.13 1.1-1.13.7 0 1.13.48 1.13 1.13s-.43 1.13-1.13 1.13c-.65 0-1.1-.48-1.1-1.13zm3.53 0c0-.65.43-1.13 1.13-1.13.65 0 1.1.48 1.1 1.13s-.46 1.13-1.1 1.13c-.7 0-1.13-.48-1.13-1.13zm13.7 15.31c0 2.09-2.04 3.58-4.25 3.58s-3.94-.94-3.94-2.71c0-1.08.74-1.97 1.82-2.47-.72-.26-1.25-.77-1.25-1.68 0-1.32 1.27-1.82 2.21-2.06-1.22-.43-2.18-1.61-2.18-3.31 0-2.21 1.54-3.58 3.24-3.58h4.22v.89h-2.14c.72.58 1.2 1.51 1.2 2.69 0 1.7-.94 2.9-2.16 3.36h.02c-1.44.48-3.07.62-3.07 1.39 0 .7.74.7 2.33.77 1.85.07 3.94.74 3.94 3.14zm-1.32.67c0-1.49-1.06-2.06-2.81-2.06s-2.9.67-2.9 2.04c0 1.61 1.42 2.16 2.9 2.16s2.81-.55 2.81-2.14zm-4.68-9.34c0 1.63.48 2.78 1.66 2.78s1.73-1.15 1.73-2.78-.5-2.81-1.73-2.81-1.66 1.15-1.66 2.81zm15.96-3.57v.58c-.94.17-1.03.29-1.39 1.39l-3.79 11.59c-.62 1.9-1.3 2.35-2.35 2.35-1.13 0-1.73-.6-1.82-1.54-.05-.5.17-.91.67-.96.48-.05.86.19.89.77.02.72.29.96.67.96.29 0 .7-.12 1.18-1.58l.94-2.83-2.95-8.76c-.43-1.27-1.01-1.34-1.51-1.39v-.58h4.22v.58c-1.32.12-1.32.22-.96 1.34l1.97 6.41 2.09-6.36c.36-1.08.26-1.27-.96-1.39v-.58h3.12zm3.98-1.97v1.97h2.71v.77h-2.71v8.35c0 1.44.19 1.66 1.66 1.78v.58h-4.54v-.58c1.08-.12 1.25-.34 1.25-1.78v-8.35h-1.9v-.7c1.66-.07 1.9-.14 1.9-1.3 0-2.59 1.46-3.58 2.83-3.58 1.03 0 2.16.58 2.16 1.75 0 .38-.17.7-.67.7s-.65-.34-.65-.82c0-.65-.36-.86-.96-.86-.79 0-1.08.7-1.08 2.06z"/><use xlink:href="#H" x="-95.64" y="26"/><path d="M96.12 43.57c0 1.44.17 1.66 1.25 1.78v.58h-4.13v-.58c1.08-.12 1.25-.34 1.25-1.78v-11.3c0-1.44-.17-1.7-1.34-1.8v-.58h2.98v13.68z"/><use xlink:href="#H" x="-81.02" y="26"/><path d="M107.88 35.03v-.58h2.98v9.12c0 1.44.17 1.66 1.25 1.78v.58h-4.13v-.58c1.08-.12 1.25-.34 1.25-1.78v-6.74c0-1.44-.17-1.7-1.34-1.8zm.84-3.67c0-.72.48-1.25 1.22-1.25s1.22.53 1.22 1.25-.5 1.25-1.22 1.25-1.22-.53-1.22-1.25z"/><use xlink:href="#G" x="-44.73" y="26"/><use xlink:href="#H" x="-55.51" y="26"/><path d="M143.06 45.35v.58h-2.74l-3.19-5.95h-.86v3.6c0 1.44.17 1.66 1.25 1.78v.58h-4.13v-.58c1.08-.12 1.25-.34 1.25-1.78v-11.3c0-1.44-.17-1.7-1.34-1.8v-.58h2.98v9.31h.94l2.4-3.12c.62-.82.14-.96-.86-1.06v-.58h3.67v.58c-.91.1-1.27.24-1.9 1.06l-2.26 2.93 3.07 5.3c.53.89.84.94 1.73 1.03zm.91-.53c0-.77.53-1.34 1.32-1.34s1.3.58 1.3 1.34-.5 1.34-1.3 1.34-1.32-.58-1.32-1.34z"/></g><defs ><path id="B" d="M32.64 18.79v.79c-.62.38-1.32.58-2.11.58-1.46 0-2.3-.84-2.3-2.66V9.22h-1.68v-.7c1.68-.24 2.52-1.3 2.71-3.34h.65v3.26h2.62v.77h-2.62v7.97c0 1.54.5 1.92 1.39 1.92.5 0 .94-.12 1.34-.31z"/><path id="C" d="M41.74 19.3v.58c-.34.07-.79.19-1.32.19-.86 0-1.39-.53-1.39-1.7v-.1c-.48 1.27-1.42 1.9-2.54 1.9-1.75 0-2.62-1.32-2.62-3.22 0-2.28 1.27-3.31 3.53-3.91l1.37-.36v-1.75c0-1.44-.55-1.94-1.46-1.94s-1.44.77-1.44 1.7c0 .72-.31.91-.77.91-.43 0-.77-.22-.77-.86 0-1.2 1.39-2.52 2.98-2.52 1.99 0 3.1 1.42 3.1 3.43v6.26c0 1.13.36 1.42 1.34 1.39zm-2.98-2.98v-2.9l-1.18.34c-1.68.53-1.99 1.7-1.99 3.1s.58 2.23 1.56 2.23c.84 0 1.61-.94 1.61-2.76z"/><path id="D" d="M49.78 10.01c0 .79-.26 1.27-.86 1.27-.38 0-.77-.26-.77-.77 0-.24.12-.48.12-.7 0-.41-.29-.62-.72-.62-1.06 0-1.8 1.46-1.8 3.53v4.85c0 1.44.17 1.66 1.61 1.78v.58h-4.49v-.58c1.08-.12 1.25-.34 1.25-1.78v-6.74c0-1.44-.17-1.7-1.34-1.8v-.58h2.76v1.94c.46-1.34 1.32-2.18 2.47-2.18s1.78.77 1.78 1.8z"/><path id="E" d="M99.55 13.95v.26c0 3.72.79 5.18 2.54 5.18 1.32 0 2.23-1.13 2.33-2.86h.79c-.14 2.14-1.3 3.62-3.31 3.62-2.71 0-4.08-2.21-4.08-5.95s1.75-6 3.82-6 3.62 2.11 3.62 5.52v.22h-5.71zm.02-.77h4.01c0-2.57-.62-4.2-1.94-4.2s-1.94 1.42-2.06 4.2zm2.21-6.07h-.79l1.51-3.12c.24-.5.55-.67.86-.67.5 0 .91.41.91.86 0 .19-.1.43-.29.62l-2.21 2.3z"/><path id="F" d="M140.11 19.35v.58h-2.74l-3.19-5.95h-.86v3.6c0 1.44.17 1.66 1.25 1.78v.58h-4.13v-.58c1.08-.12 1.25-.34 1.25-1.78V6.26c0-1.44-.17-1.7-1.34-1.8v-.58h2.98v9.32h.94l2.4-3.12c.62-.82.14-.96-.86-1.06v-.58h3.67v.58c-.91.1-1.27.24-1.9 1.06l-2.26 2.93 3.07 5.3c.53.89.84.94 1.73 1.03z"/><path id="G" d="M167.66 19.35v.58h-4.03v-.58c.98-.12 1.15-.34 1.15-1.78v-6.53c0-1.42-.5-1.94-1.44-1.94-1.25 0-2.23 1.32-2.23 2.98v5.5c0 1.44.17 1.66 1.15 1.78v.58h-4.03v-.58c1.08-.12 1.25-.34 1.25-1.78v-6.74c0-1.44-.17-1.7-1.34-1.8v-.58h2.76v1.82c.48-1.27 1.49-2.06 2.78-2.06 1.75 0 2.74 1.32 2.74 3.48v5.88c0 1.44.17 1.66 1.25 1.78z"/><path id="H" d="M181.63 13.95v.26c0 3.72.79 5.18 2.54 5.18 1.32 0 2.23-1.13 2.33-2.86h.79c-.14 2.14-1.3 3.62-3.31 3.62-2.71 0-4.08-2.21-4.08-5.95s1.75-6 3.82-6 3.62 2.11 3.62 5.52v.22h-5.71zm.02-.77h4.01c0-2.57-.62-4.2-1.94-4.2s-1.94 1.42-2.06 4.2z"/></defs></svg>